<svg width="1600" height="794" fill="none" xmlns="http://www.w3.org/2000/svg"><rect x="412" y="114.406" width="183.103" height="620.785" rx="91.551" transform="rotate(-38.669 412 114.406)" fill="url(#a)" fill-opacity=".22"/><rect x="-7" y="-205.594" width="183.103" height="620.785" rx="91.551" transform="rotate(-38.669 -7 -205.594)" fill="#7373FF" fill-opacity=".22"/><rect x="-323" y="-10.594" width="183.103" height="620.785" rx="91.551" transform="rotate(-38.669 -323 -10.594)" fill="#7373FF" fill-opacity=".22"/><rect x="-395" y="308.406" width="183.103" height="620.785" rx="91.551" transform="rotate(-38.669 -395 308.406)" fill="#7373FF" fill-opacity=".22"/><rect width="183.103" height="620.785" rx="91.551" transform="scale(1 -1) rotate(24.438 1515.38 3036.095)" fill="url(#b)" fill-opacity=".22"/><circle cx="85" cy="244" r="15" fill="url(#c)" fill-opacity=".4"/><circle cx="1600" cy="340" r="15" fill="url(#d)" fill-opacity=".4"/><circle cx="16" cy="617" r="50" fill="url(#e)" fill-opacity=".4"/><defs><linearGradient id="a" x1="503.551" y1="114.406" x2="535.384" y2="694.84" gradientUnits="userSpaceOnUse"><stop offset=".236" stop-color="#7373FF"/><stop offset="1" stop-color="#7373FF" stop-opacity="0"/></linearGradient><linearGradient id="b" x1="91.551" y1="0" x2="123.384" y2="580.434" gradientUnits="userSpaceOnUse"><stop offset=".236" stop-color="#7373FF"/><stop offset="1" stop-color="#7373FF" stop-opacity="0"/></linearGradient><linearGradient id="c" x1="73.9" y1="233.5" x2="90.4" y2="259" gradientUnits="userSpaceOnUse"><stop stop-color="#6E5BFF"/><stop offset="1" stop-color="#6D58FF"/></linearGradient><linearGradient id="d" x1="1588.9" y1="329.5" x2="1605.4" y2="355" gradientUnits="userSpaceOnUse"><stop stop-color="#6E5BFF"/><stop offset="1" stop-color="#6D58FF"/></linearGradient><linearGradient id="e" x1="-21" y1="582" x2="34" y2="667" gradientUnits="userSpaceOnUse"><stop stop-color="#6E5BFF"/><stop offset="1" stop-color="#6D58FF"/></linearGradient></defs></svg>