<svg width="160" height="32" fill="none" xmlns="http://www.w3.org/2000/svg"><g clip-path="url(#a)"><path d="M48.073 24.238V7.95h3.071v13.496h7.446v2.792H48.073zM65.222 24.564c-1.148 0-2.18-.233-3.095-.698a5.234 5.234 0 0 1-2.164-2.025c-.527-.884-.791-1.946-.791-3.187v-.373c0-1.24.264-2.303.791-3.187a5.235 5.235 0 0 1 2.164-2.025c.915-.465 1.947-.698 3.095-.698 1.148 0 2.18.233 3.094.698a5.236 5.236 0 0 1 2.164 2.024c.528.885.791 1.947.791 3.188v.373c0 1.24-.263 2.303-.79 3.187a5.235 5.235 0 0 1-2.165 2.025c-.915.465-1.946.698-3.094.698zm0-2.606c.9 0 1.644-.287 2.234-.861.589-.59.884-1.427.884-2.513v-.233c0-1.086-.295-1.916-.885-2.49-.573-.59-1.318-.884-2.233-.884-.9 0-1.645.295-2.234.884-.59.574-.884 1.404-.884 2.49v.233c0 1.086.294 1.923.884 2.513.59.574 1.334.86 2.234.86zM72.372 18.514v-.372c0-1.21.24-2.242.721-3.095.481-.869 1.117-1.528 1.908-1.978a5.172 5.172 0 0 1 2.63-.698c1.055 0 1.853.186 2.396.559.543.372.939.76 1.187 1.163h.419v-1.396h2.885v13.589c0 .79-.232 1.419-.698 1.884-.465.481-1.086.722-1.861.722h-7.725v-2.56h6.7c.435 0 .652-.233.652-.698v-3.002h-.418a3.996 3.996 0 0 1-.652.768c-.28.248-.651.458-1.117.629-.465.17-1.055.256-1.768.256A5.31 5.31 0 0 1 75 23.61c-.79-.466-1.427-1.125-1.908-1.978-.48-.869-.72-1.908-.72-3.118zm6.097 3.211c.9 0 1.652-.287 2.257-.86.605-.575.907-1.381.907-2.42v-.233c0-1.055-.302-1.862-.907-2.42-.59-.574-1.342-.861-2.257-.861-.9 0-1.653.287-2.258.86-.605.559-.907 1.366-.907 2.42v.233c0 1.04.302 1.846.907 2.42.605.574 1.358.861 2.258.861zM92.213 24.564c-1.148 0-2.18-.233-3.095-.698a5.234 5.234 0 0 1-2.164-2.025c-.527-.884-.79-1.946-.79-3.187v-.373c0-1.24.263-2.303.79-3.187a5.235 5.235 0 0 1 2.164-2.025c.916-.465 1.947-.698 3.095-.698 1.148 0 2.18.233 3.095.698a5.236 5.236 0 0 1 2.164 2.024c.527.885.79 1.947.79 3.188v.373c0 1.24-.263 2.303-.79 3.187a5.235 5.235 0 0 1-2.164 2.025c-.916.465-1.947.698-3.095.698zm0-2.606c.9 0 1.644-.287 2.234-.861.59-.59.884-1.427.884-2.513v-.233c0-1.086-.295-1.916-.884-2.49-.574-.59-1.319-.884-2.234-.884-.9 0-1.644.295-2.234.884-.59.574-.884 1.404-.884 2.49v.233c0 1.086.295 1.923.884 2.513.59.574 1.334.86 2.234.86zM99.922 24.238V12.697h2.932v11.541h-2.932zm1.466-12.89c-.528 0-.977-.171-1.35-.513-.357-.34-.535-.79-.535-1.349 0-.558.178-1.008.535-1.35a1.927 1.927 0 0 1 1.35-.511c.543 0 .993.17 1.349.511.357.342.536.792.536 1.35s-.179 1.008-.536 1.35c-.356.34-.806.511-1.349.511zM105.056 28.892V12.697h2.885v1.396h.419c.263-.45.674-.845 1.233-1.187.558-.357 1.357-.535 2.397-.535.93 0 1.791.233 2.582.698.792.45 1.428 1.117 1.908 2.001.481.884.722 1.955.722 3.211v.373c0 1.256-.241 2.326-.722 3.21-.48.885-1.116 1.56-1.908 2.025a5.136 5.136 0 0 1-2.582.675c-.698 0-1.288-.085-1.769-.256-.465-.155-.845-.357-1.14-.605a4.392 4.392 0 0 1-.675-.791h-.419v5.98h-2.931zm6.049-6.888c.916 0 1.668-.287 2.257-.86.605-.59.908-1.443.908-2.56v-.233c0-1.117-.303-1.962-.908-2.536-.605-.59-1.357-.884-2.257-.884-.899 0-1.652.294-2.257.884-.605.574-.907 1.42-.907 2.536v.233c0 1.117.302 1.97.907 2.56.605.573 1.358.86 2.257.86zM123.64 24.564c-1.505 0-2.738-.326-3.7-.977-.961-.652-1.543-1.583-1.745-2.793l2.699-.698c.109.543.287.97.536 1.28.263.31.581.535.954.675.387.124.806.186 1.256.186.683 0 1.187-.116 1.512-.35.326-.247.489-.55.489-.907a.895.895 0 0 0-.465-.814c-.311-.202-.807-.364-1.489-.489l-.652-.116a12.34 12.34 0 0 1-2.21-.628c-.668-.28-1.203-.66-1.606-1.14-.403-.481-.605-1.102-.605-1.862 0-1.148.419-2.024 1.257-2.63.837-.62 1.939-.93 3.304-.93 1.287 0 2.358.287 3.211.861.853.574 1.411 1.326 1.675 2.257l-2.722.838c-.124-.59-.38-1.009-.768-1.257-.373-.248-.838-.372-1.396-.372-.559 0-.985.1-1.28.302a.884.884 0 0 0-.442.791c0 .373.155.652.465.838.31.17.729.303 1.257.396l.651.116c.869.155 1.652.365 2.35.628.714.249 1.272.613 1.676 1.094.418.465.628 1.101.628 1.908 0 1.21-.442 2.148-1.326 2.816-.869.651-2.04.977-3.514.977zM134.4 24.424c-.9 0-1.691-.201-2.374-.605a4.3 4.3 0 0 1-1.559-1.721c-.372-.73-.558-1.567-.558-2.514v-6.887h2.932v6.655c0 .869.209 1.52.628 1.954.434.435 1.047.652 1.838.652.9 0 1.598-.295 2.094-.884.497-.605.745-1.443.745-2.513v-5.864h2.932v11.541h-2.886v-1.512h-.418c-.186.388-.536.768-1.047 1.14-.512.372-1.288.558-2.327.558zM143.293 24.238V12.697h2.885v1.256h.419c.202-.387.536-.721 1.001-1 .465-.295 1.078-.442 1.838-.442.822 0 1.482.163 1.978.488.496.31.876.722 1.14 1.234h.419a3.403 3.403 0 0 1 1.117-1.234c.481-.325 1.163-.488 2.047-.488.714 0 1.358.155 1.932.465.589.295 1.055.752 1.396 1.373.357.605.535 1.373.535 2.303v7.586h-2.932v-7.376c0-.636-.163-1.11-.488-1.42-.326-.325-.784-.488-1.373-.488-.667 0-1.187.217-1.559.651-.357.42-.535 1.024-.535 1.815v6.818h-2.932v-7.376c0-.636-.163-1.11-.489-1.42-.326-.325-.783-.488-1.373-.488-.667 0-1.187.217-1.559.651-.357.42-.535 1.024-.535 1.815v6.818h-2.932z" fill="#fff"/><path d="M38.78 15.513a15.513 15.513 0 0 0-31.025 0h4.848c1.607 0 2.86-1.347 3.448-2.841a7.756 7.756 0 0 1 14.973 2.84h7.757z" fill="url(#b)"/><path d="M29.844 21.45c.78-1.883 1.181-3.9 1.181-5.937h7.756c0 8.567-6.945 15.512-15.513 15.512a15.54 15.54 0 0 1-3.885-.49 15.521 15.521 0 0 0 7.099-4.053 15.511 15.511 0 0 0 3.362-5.033z" fill="#FBCF8E"/><path d="M0 15.513a15.513 15.513 0 1 0 31.025 0h-4.847c-1.607 0-2.86 1.346-3.448 2.84a7.755 7.755 0 0 1-14.974-2.84H0z" fill="url(#c)"/><path d="M.001 15.513C.001 6.945 6.947 0 15.514 0c1.341 0 2.643.17 3.885.49A15.513 15.513 0 0 0 7.755 15.513H.001z" fill="#73E5E2"/></g><defs><linearGradient id="b" x1="38.781" y1="7.756" x2="7.755" y2="7.756" gradientUnits="userSpaceOnUse"><stop stop-color="#73E5E2"/><stop offset="1" stop-color="#394F87"/></linearGradient><linearGradient id="c" x1="0" y1="23.269" x2="31.025" y2="23.269" gradientUnits="userSpaceOnUse"><stop stop-color="#FBDC8E"/><stop offset="1" stop-color="#FB958E"/></linearGradient><clipPath id="a"><path fill="#fff" d="M0 0h160v32H0z"/></clipPath></defs></svg>