<svg width="144" height="29" fill="none" xmlns="http://www.w3.org/2000/svg"><g clip-path="url(#a)"><path d="M43.266 21.814V7.155h2.764v12.146h6.702v2.513h-9.466zM58.7 22.108c-1.033 0-1.962-.21-2.786-.629a4.71 4.71 0 0 1-1.947-1.822c-.475-.796-.712-1.752-.712-2.869v-.335c0-1.117.237-2.073.712-2.869a4.71 4.71 0 0 1 1.947-1.822c.824-.418 1.753-.628 2.786-.628 1.033 0 1.961.21 2.785.628a4.712 4.712 0 0 1 1.947 1.822c.475.796.712 1.752.712 2.87v.334c0 1.117-.237 2.073-.712 2.87a4.711 4.711 0 0 1-1.947 1.821c-.824.419-1.752.629-2.785.629zm0-2.346c.81 0 1.48-.258 2.01-.775.53-.53.796-1.284.796-2.261v-.21c0-.977-.265-1.724-.796-2.24-.517-.531-1.187-.797-2.01-.797-.81 0-1.48.266-2.01.796-.531.517-.796 1.264-.796 2.241v.21c0 .977.265 1.73.795 2.261.53.517 1.201.775 2.01.775zM65.135 16.663v-.335c0-1.09.216-2.018.649-2.786.433-.781 1.005-1.375 1.717-1.78a4.656 4.656 0 0 1 2.367-.628c.949 0 1.668.168 2.157.503.488.335.844.684 1.068 1.047h.377v-1.257h2.596v12.23c0 .712-.21 1.277-.628 1.696-.419.433-.977.65-1.675.65H66.81v-2.304h6.031c.391 0 .587-.21.587-.628v-2.702h-.377c-.14.224-.335.454-.587.691-.25.224-.586.412-1.005.566-.419.153-.95.23-1.591.23a4.78 4.78 0 0 1-2.367-.607c-.712-.419-1.284-1.012-1.717-1.78-.433-.782-.65-1.717-.65-2.806zm5.486 2.89c.81 0 1.487-.259 2.032-.775.544-.517.817-1.243.817-2.178v-.21c0-.949-.273-1.675-.817-2.178-.53-.516-1.208-.774-2.032-.774-.81 0-1.486.258-2.03.774-.545.503-.818 1.229-.818 2.178v.21c0 .935.273 1.661.817 2.178.545.516 1.222.774 2.031.774zM82.992 22.108c-1.033 0-1.962-.21-2.785-.629a4.71 4.71 0 0 1-1.948-1.822c-.475-.796-.712-1.752-.712-2.869v-.335c0-1.117.237-2.073.712-2.869a4.711 4.711 0 0 1 1.948-1.822c.823-.418 1.752-.628 2.785-.628 1.033 0 1.961.21 2.785.628a4.712 4.712 0 0 1 1.948 1.822c.474.796.712 1.752.712 2.87v.334c0 1.117-.238 2.073-.712 2.87a4.711 4.711 0 0 1-1.948 1.821c-.824.419-1.752.629-2.785.629zm0-2.346c.81 0 1.48-.258 2.01-.775.53-.53.796-1.284.796-2.261v-.21c0-.977-.265-1.724-.796-2.24-.516-.531-1.186-.797-2.01-.797-.81 0-1.48.266-2.01.796-.531.517-.796 1.264-.796 2.241v.21c0 .977.265 1.73.795 2.261.53.517 1.201.775 2.01.775zM89.93 21.814V11.427h2.638v10.387H89.93zm1.32-11.601c-.476 0-.88-.154-1.216-.461-.32-.307-.481-.712-.481-1.215 0-.502.16-.907.481-1.214.336-.307.74-.46 1.215-.46.489 0 .894.153 1.214.46.322.307.483.712.483 1.214 0 .503-.162.908-.483 1.215-.32.307-.725.46-1.214.46zM94.55 26.003V11.427h2.597v1.257h.377c.237-.405.606-.761 1.11-1.068.502-.321 1.22-.482 2.157-.482.837 0 1.612.21 2.324.628.712.405 1.285 1.005 1.717 1.801.433.796.65 1.76.65 2.89v.335c0 1.131-.217 2.094-.65 2.89-.432.796-1.005 1.403-1.717 1.822a4.622 4.622 0 0 1-2.324.608c-.628 0-1.16-.077-1.592-.23-.419-.14-.76-.322-1.026-.545a3.956 3.956 0 0 1-.608-.712h-.377v5.382H94.55zm5.444-6.2c.825 0 1.502-.257 2.032-.774.544-.53.817-1.298.817-2.303v-.21c0-1.005-.273-1.766-.817-2.283-.545-.53-1.222-.795-2.032-.795-.809 0-1.486.265-2.03.795-.545.517-.817 1.278-.817 2.283v.21c0 1.005.272 1.773.816 2.303.545.517 1.222.775 2.031.775zM111.276 22.108c-1.354 0-2.464-.294-3.33-.88-.864-.587-1.388-1.424-1.57-2.513l2.429-.628c.098.488.258.872.482 1.151.237.28.523.482.859.608a3.68 3.68 0 0 0 1.13.167c.615 0 1.069-.104 1.361-.314.294-.223.44-.496.44-.817a.805.805 0 0 0-.418-.733c-.28-.181-.726-.328-1.34-.44l-.587-.104a11.1 11.1 0 0 1-1.989-.565c-.601-.252-1.083-.594-1.445-1.027-.363-.432-.545-.99-.545-1.675 0-1.033.377-1.822 1.131-2.366.754-.559 1.745-.838 2.974-.838 1.158 0 2.122.258 2.89.775.768.516 1.27 1.193 1.507 2.031l-2.449.754c-.112-.53-.342-.907-.692-1.13-.335-.224-.754-.336-1.256-.336-.503 0-.887.091-1.152.272a.795.795 0 0 0-.398.712c0 .335.14.587.419.754.279.154.656.273 1.131.356l.586.105c.782.14 1.487.328 2.115.566.642.223 1.145.55 1.508.984.376.419.565.991.565 1.717 0 1.089-.397 1.934-1.193 2.534-.782.586-1.836.88-3.163.88zM120.96 21.982c-.81 0-1.522-.182-2.136-.545a3.859 3.859 0 0 1-1.403-1.55c-.335-.655-.503-1.41-.503-2.261v-6.199h2.639v5.99c0 .781.188 1.368.565 1.759.391.39.943.586 1.655.586.81 0 1.438-.265 1.884-.796.448-.544.671-1.298.671-2.261v-5.278h2.639v10.387h-2.598v-1.36h-.376c-.167.348-.482.69-.942 1.025-.461.335-1.16.503-2.095.503zM128.964 21.814V11.427h2.596v1.131h.377c.182-.349.483-.65.901-.9.419-.266.971-.398 1.655-.398.739 0 1.333.146 1.78.44.446.279.788.649 1.026 1.11h.377a3.055 3.055 0 0 1 1.005-1.11c.433-.294 1.047-.44 1.842-.44.643 0 1.223.14 1.739.419.53.265.95.677 1.257 1.235.321.545.481 1.236.481 2.073v6.827h-2.639v-6.638c0-.573-.146-.998-.439-1.278-.293-.293-.705-.44-1.236-.44-.6 0-1.068.196-1.403.587-.321.377-.481.921-.481 1.633v6.136h-2.639v-6.638c0-.573-.147-.998-.44-1.278-.293-.293-.705-.44-1.236-.44-.6 0-1.068.196-1.403.587-.321.377-.481.921-.481 1.633v6.136h-2.639z" fill="#fff"/><path d="M34.903 13.961a13.961 13.961 0 0 0-27.923 0h4.364c1.445 0 2.573-1.211 3.102-2.556a6.982 6.982 0 0 1 11.432-2.38 6.98 6.98 0 0 1 2.045 4.936h6.98z" fill="url(#b)"/><path d="M26.86 19.304a13.962 13.962 0 0 0 1.063-5.343h6.98c0 7.711-6.251 13.962-13.962 13.962-1.207 0-2.38-.153-3.497-.442a13.957 13.957 0 0 0 9.416-8.177z" fill="#FBCF8E"/><path d="M0 13.961a13.962 13.962 0 1 0 27.923 0H23.56c-1.446 0-2.573 1.212-3.103 2.557l-.046.115a6.98 6.98 0 0 1-12.899 0 6.981 6.981 0 0 1-.531-2.672H0z" fill="url(#c)"/><path d="M.001 13.961C.001 6.251 6.252 0 13.963 0c1.207 0 2.379.153 3.496.441A13.962 13.962 0 0 0 6.98 13.961H.001z" fill="#73E5E2"/></g><defs><linearGradient id="b" x1="34.903" y1="6.981" x2="6.98" y2="6.981" gradientUnits="userSpaceOnUse"><stop stop-color="#73E5E2"/><stop offset="1" stop-color="#394F87"/></linearGradient><linearGradient id="c" x1="0" y1="20.942" x2="27.923" y2="20.942" gradientUnits="userSpaceOnUse"><stop stop-color="#FBDC8E"/><stop offset="1" stop-color="#FB958E"/></linearGradient><clipPath id="a"><path fill="#fff" d="M0 0h144v28.8H0z"/></clipPath></defs></svg>