<svg width="359" height="313" fill="none" xmlns="http://www.w3.org/2000/svg"><rect x="52.905" width="257.612" height="192.967" rx="3.013" fill="#F3F1FF"/><rect x="64.484" y="32.162" width="234.456" height="150.086" rx="3.013" fill="#fff"/><rect x="76.061" y="42.882" width="211.3" height="128.645" rx="3.013" fill="#F3F1FF"/><rect x="87.638" y="53.603" width="58.614" height="5.36" rx="2.68" fill="#fff"/><rect x="87.638" y="64.322" width="58.614" height="5.36" rx="2.68" fill="#fff"/><rect x="87.638" y="75.043" width="37.629" height="5.36" rx="2.68" fill="#fff"/><rect x="146.977" y="134.006" width="61.006" height="6.025" rx="3.013" fill="#fff"/><rect x="146.978" y="146.056" width="61.006" height="6.025" rx="3.013" fill="#fff"/><rect x="146.978" y="158.107" width="39.165" height="6.025" rx="3.013" fill="#fff"/><rect x="220.035" y="134.006" width="61.006" height="6.025" rx="3.013" fill="#fff"/><rect x="220.035" y="146.057" width="61.006" height="6.025" rx="3.013" fill="#fff"/><rect x="220.035" y="158.106" width="39.165" height="6.025" rx="3.013" fill="#fff"/><circle cx="70.509" cy="16.081" r="6.025" fill="#C4C4C4"/><circle cx="89.339" cy="16.081" r="6.025" fill="#C4C4C4"/><circle cx="108.167" cy="16.081" r="6.025" fill="#C4C4C4"/><rect x="276.876" y="10.808" width="31.633" height="10.544" rx="5.272" fill="#D9D9D9"/><rect x="179.54" y="55.612" width="179.46" height="32.161" rx="2.845" fill="#FF007A"/><path fill="#F3F1FF" d="M187.071 67.663h12.051v12.051h-12.051z"/><rect x="240.546" y="70.675" width="25.608" height="6.025" rx="3.013" fill="#fff"/><rect x="272.179" y="70.675" width="25.608" height="6.025" rx="3.013" fill="#fff"/><rect x="303.812" y="70.675" width="25.608" height="6.025" rx="3.013" fill="#fff"/><rect x="347.495" y="70.675" width="11.297" height="6.025" rx="3.013" fill="#fff"/><g filter="url(#a)"><rect x="16" y="129.314" width="119.399" height="136.685" rx="3.013" fill="#fff" shape-rendering="crispEdges"/><path d="M27.425 152.371a.68.68 0 0 0 .465-.171.592.592 0 0 0 .2-.476v-2.901h1.754c.482 0 .908-.041 1.277-.124.368-.086.694-.221.976-.406.283-.188.497-.443.642-.765.149-.321.223-.706.223-1.153 0-.863-.257-1.485-.77-1.865-.514-.385-1.258-.577-2.23-.577h-2.53a.67.67 0 0 0-.483.194.643.643 0 0 0-.194.471v7.126c0 .204.066.362.2.476.133.114.29.171.47.171zm.665-4.566v-2.813h1.777c.62 0 1.071.1 1.354.3.282.2.423.561.423 1.083 0 .533-.147.906-.44 1.118-.295.208-.758.312-1.39.312H28.09zm7.406 4.654c.823 0 1.41-.359 1.759-1.077v.436c0 .117.027.219.082.306.06.082.13.145.212.188a.678.678 0 0 0 .694-.088.524.524 0 0 0 .177-.418v-3.319c0-.714-.208-1.239-.624-1.577-.416-.337-.984-.506-1.706-.506-.836 0-1.557.165-2.165.495a.35.35 0 0 0-.147.135.33.33 0 0 0-.048.177c0 .035.004.07.012.105.012.036.026.071.041.106.02.032.041.063.065.094a.82.82 0 0 0 .088.077.46.46 0 0 0 .1.047.373.373 0 0 0 .259-.012c.204-.086.367-.153.489-.2.125-.047.31-.096.553-.147.243-.055.48-.082.712-.082.792 0 1.188.396 1.188 1.188v.577c-.423 0-.782.006-1.077.018-.29.007-.58.027-.87.058a3.842 3.842 0 0 0-.706.124c-.18.055-.352.128-.512.218-.161.086-.285.194-.371.323a1.57 1.57 0 0 0-.206.453c-.047.173-.07.375-.07.607 0 .541.192.959.576 1.253.385.294.883.441 1.495.441zm.117-.777c-.325 0-.584-.078-.776-.235-.193-.157-.289-.4-.289-.73 0-.156.016-.29.047-.4a.633.633 0 0 1 .177-.294c.09-.082.196-.147.318-.194.121-.047.288-.084.5-.112.215-.031.449-.051.7-.059.251-.011.565-.017.941-.017v.164c0 .546-.162.995-.488 1.348-.326.353-.702.529-1.13.529zm4.328.136c.42.298.938.498 1.554.6.227.035.45.053.67.053.338 0 .646-.037.924-.112a2.36 2.36 0 0 0 .742-.329c.211-.149.376-.342.494-.577.117-.235.176-.504.176-.806 0-.432-.133-.783-.4-1.053-.267-.271-.7-.483-1.3-.636l-.989-.241c-.396-.098-.657-.194-.782-.288-.122-.095-.183-.253-.183-.477 0-.177.06-.324.177-.441a.972.972 0 0 1 .465-.253c.192-.051.412-.077.659-.077.082 0 .166.004.253.012.086.008.164.018.235.029.07.012.145.028.224.047.078.016.145.034.2.053.059.016.121.036.188.059.07.02.126.037.165.053l.141.059.118.041c.07.024.135.035.194.035a.387.387 0 0 0 .27-.105.37.37 0 0 0 .095-.259c0-.169-.085-.295-.253-.377a4.021 4.021 0 0 0-.842-.306 4.119 4.119 0 0 0-1.077-.135c-.855 0-1.486.196-1.894.588-.279.271-.418.614-.418 1.03 0 .153.014.292.041.418.032.125.07.235.118.329a.88.88 0 0 0 .2.259c.086.079.172.145.259.2.09.055.206.11.347.165.141.051.273.096.394.135.126.036.28.077.465.124l1 .253c.322.082.555.19.7.323a.68.68 0 0 1 .218.524c0 .314-.13.549-.388.706-.255.157-.584.236-.989.236-.576 0-1.137-.167-1.682-.501a.546.546 0 0 0-.277-.082.371.371 0 0 0-.282.118.379.379 0 0 0-.112.27c0 .138.06.249.182.336zm5.787 0c.42.298.938.498 1.554.6.227.035.45.053.67.053.338 0 .646-.037.924-.112a2.36 2.36 0 0 0 .742-.329c.212-.149.376-.342.494-.577.118-.235.176-.504.176-.806 0-.432-.133-.783-.4-1.053-.266-.271-.7-.483-1.3-.636l-.989-.241c-.396-.098-.657-.194-.782-.288-.122-.095-.182-.253-.182-.477 0-.177.058-.324.176-.441a.972.972 0 0 1 .465-.253c.192-.051.412-.077.659-.077.082 0 .167.004.253.012s.165.018.235.029c.07.012.145.028.224.047.078.016.145.034.2.053.059.016.121.036.188.059.07.02.126.037.165.053l.141.059.118.041c.07.024.135.035.194.035a.387.387 0 0 0 .27-.105.374.374 0 0 0 .095-.259c0-.169-.084-.295-.253-.377a4.022 4.022 0 0 0-.842-.306 4.12 4.12 0 0 0-1.076-.135c-.856 0-1.487.196-1.895.588-.279.271-.418.614-.418 1.03 0 .153.014.292.041.418.032.125.07.235.118.329a.882.882 0 0 0 .2.259c.086.079.173.145.259.2.09.055.206.11.347.165.141.051.273.096.394.135.126.036.28.077.465.124l1 .253c.322.082.556.19.7.323a.68.68 0 0 1 .218.524c0 .314-.129.549-.388.706-.255.157-.584.236-.988.236-.577 0-1.138-.167-1.683-.501a.546.546 0 0 0-.277-.082.371.371 0 0 0-.282.118.38.38 0 0 0-.112.27c0 .138.06.249.182.336zm12.26.547c.369 0 .626-.22.77-.659l1.519-4.49a.594.594 0 0 0 .035-.2.422.422 0 0 0-.017-.123.417.417 0 0 0-.048-.112.416.416 0 0 0-.07-.094.316.316 0 0 0-.088-.071.587.587 0 0 0-.335-.106.556.556 0 0 0-.313.094.52.52 0 0 0-.194.283l-1.36 4.236-1.382-3.989c-.145-.424-.402-.635-.77-.635-.373 0-.632.211-.777.635l-1.383 3.989-1.354-4.236a.507.507 0 0 0-.2-.283.556.556 0 0 0-.43-.082.585.585 0 0 0-.217.094.49.49 0 0 0-.088.071.556.556 0 0 0-.112.206.422.422 0 0 0-.017.123c0 .067.011.134.035.2l1.518 4.49c.141.439.398.659.77.659.4 0 .683-.241.848-.724l1.406-4.013 1.4 4.013c.17.483.454.724.854.724zm6.064-.712c-.565 0-1.009-.198-1.33-.594-.322-.396-.483-.938-.483-1.624 0-.691.16-1.234.477-1.63.322-.396.767-.594 1.336-.594.564 0 1.008.2 1.33.6.321.396.482.937.482 1.624 0 .69-.159 1.231-.477 1.624-.317.392-.763.59-1.335.594zm0 .806c.474 0 .904-.08 1.288-.241.385-.165.698-.387.942-.665a2.97 2.97 0 0 0 .559-.959c.13-.365.194-.751.194-1.159 0-.565-.114-1.073-.341-1.524a2.595 2.595 0 0 0-1.024-1.095c-.455-.274-.995-.412-1.618-.412-.475 0-.905.081-1.289.242-.38.16-.694.38-.941.659-.244.278-.43.6-.56.965-.129.361-.194.749-.194 1.165 0 .412.065.798.195 1.159.129.361.315.68.559.959.243.278.557.5.941.665.384.161.814.241 1.289.241zm4.769-.094c.16 0 .302-.049.424-.147a.499.499 0 0 0 .182-.412v-2.877c0-.499.147-.869.441-1.112.298-.244.708-.365 1.23-.365.13 0 .23-.047.3-.141a.546.546 0 0 0 .106-.336.582.582 0 0 0-.118-.365.392.392 0 0 0-.33-.153c-.395 0-.745.124-1.047.371a1.762 1.762 0 0 0-.594.918l.012-.724a.46.46 0 0 0-.035-.182.452.452 0 0 0-.218-.247.431.431 0 0 0-.159-.065.628.628 0 0 0-.177-.024.65.65 0 0 0-.423.148.482.482 0 0 0-.177.4v4.754c0 .18.057.32.17.418a.626.626 0 0 0 .413.141zm5.816.094c.938 0 1.6-.361 1.99-1.083v.418c0 .185.05.326.152.424.102.094.247.141.436.141.16 0 .3-.049.417-.147a.524.524 0 0 0 .177-.418v-7.302a.49.49 0 0 0-.177-.406.61.61 0 0 0-.412-.147c-.16 0-.3.049-.417.147a.49.49 0 0 0-.177.406v2.942c-.38-.686-1.014-1.03-1.9-1.03-.808 0-1.448.279-1.919.836-.47.557-.706 1.275-.706 2.154 0 .411.055.8.165 1.165.11.364.267.69.47.976.209.283.475.508.801.677a2.4 2.4 0 0 0 1.1.247zm.242-.806a1.466 1.466 0 0 1-.771-.212 1.393 1.393 0 0 1-.495-.553 3.214 3.214 0 0 1-.252-.712 3.774 3.774 0 0 1 .005-1.542 2.9 2.9 0 0 1 .265-.7c.122-.219.292-.394.512-.523.22-.134.479-.2.777-.2.24 0 .455.041.647.123.196.082.357.194.483.335.129.138.237.303.323.495.09.188.153.386.188.594.04.208.06.426.06.653 0 .345-.03.649-.089.912a2.184 2.184 0 0 1-.282.7 1.27 1.27 0 0 1-.542.471 1.955 1.955 0 0 1-.83.159z" fill="#393333"/><rect x="25.699" y="167.416" width="94.587" height="16.57" rx="8.285" fill="#F3F1FF"/><path d="m33.437 177.26.618-1.124.63 1.124a.543.543 0 0 0 .094.129.46.46 0 0 0 .117.071c.04.015.079.023.118.023a.373.373 0 0 0 .27-.117.387.387 0 0 0 .118-.283.483.483 0 0 0-.07-.241l-.648-1.042 1.336.042a.373.373 0 0 0 .394-.377.373.373 0 0 0-.394-.377l-1.324.048.665-1.083a.397.397 0 0 0 .041-.106.333.333 0 0 0 .018-.106.401.401 0 0 0-.053-.2.388.388 0 0 0-.324-.2.355.355 0 0 0-.188.059.514.514 0 0 0-.165.176l-.635 1.148-.636-1.165a.378.378 0 0 0-.065-.089.116.116 0 0 0-.029-.029.18.18 0 0 0-.035-.029.087.087 0 0 0-.041-.024.13.13 0 0 0-.041-.018.06.06 0 0 0-.036-.011.128.128 0 0 0-.041-.006.128.128 0 0 0-.041-.006.393.393 0 0 0-.277.117.367.367 0 0 0-.117.277c0 .078.023.155.07.23l.653 1.065-1.306-.048a.404.404 0 0 0-.218.059.334.334 0 0 0-.13.136.4.4 0 0 0-.04.182c0 .102.033.19.1.265a.38.38 0 0 0 .288.112l1.324-.042-.67 1.077a.478.478 0 0 0-.042.077.46.46 0 0 0-.023.135c0 .11.039.204.117.282a.4.4 0 0 0 .277.112c.066 0 .13-.017.188-.053a.436.436 0 0 0 .153-.17zM46.412 177.26l.617-1.124.63 1.124a.542.542 0 0 0 .094.129c.04.032.079.055.118.071.04.015.078.023.118.023a.373.373 0 0 0 .27-.117.387.387 0 0 0 .118-.283.487.487 0 0 0-.07-.241l-.648-1.042 1.336.042a.373.373 0 0 0 .394-.377.373.373 0 0 0-.394-.377l-1.324.048.665-1.083a.397.397 0 0 0 .041-.106.336.336 0 0 0 .018-.106.401.401 0 0 0-.053-.2.387.387 0 0 0-.324-.2.355.355 0 0 0-.188.059.515.515 0 0 0-.165.176l-.636 1.148-.635-1.165a.39.39 0 0 0-.094-.118.183.183 0 0 0-.035-.029.087.087 0 0 0-.042-.024.13.13 0 0 0-.04-.018.061.061 0 0 0-.036-.011.128.128 0 0 0-.041-.006.128.128 0 0 0-.041-.006.392.392 0 0 0-.277.117.367.367 0 0 0-.118.277c0 .078.024.155.07.23l.654 1.065-1.306-.048a.405.405 0 0 0-.218.059.334.334 0 0 0-.13.136.4.4 0 0 0-.04.182c0 .102.033.19.1.265a.38.38 0 0 0 .288.112l1.324-.042-.671 1.077a.478.478 0 0 0-.041.077.472.472 0 0 0-.024.135c0 .11.04.204.118.282a.4.4 0 0 0 .276.112c.067 0 .13-.017.189-.053a.438.438 0 0 0 .153-.17zM59.386 177.26l.618-1.124.63 1.124a.54.54 0 0 0 .094.129c.039.032.078.055.117.071.04.015.079.023.118.023a.373.373 0 0 0 .27-.117.387.387 0 0 0 .118-.283.484.484 0 0 0-.07-.241l-.648-1.042 1.336.042a.373.373 0 0 0 .394-.377.373.373 0 0 0-.394-.377l-1.324.048.665-1.083a.39.39 0 0 0 .041-.106.333.333 0 0 0 .018-.106.401.401 0 0 0-.053-.2.388.388 0 0 0-.324-.2.355.355 0 0 0-.188.059.513.513 0 0 0-.165.176l-.635 1.148-.636-1.165a.402.402 0 0 0-.094-.118.177.177 0 0 0-.035-.029.087.087 0 0 0-.041-.024.128.128 0 0 0-.041-.018.061.061 0 0 0-.036-.011.128.128 0 0 0-.04-.006.128.128 0 0 0-.042-.006.393.393 0 0 0-.277.117.368.368 0 0 0-.117.277c0 .078.023.155.07.23l.653 1.065-1.306-.048a.404.404 0 0 0-.218.059.334.334 0 0 0-.129.136.4.4 0 0 0-.041.182c0 .102.033.19.1.265a.38.38 0 0 0 .288.112l1.324-.042-.67 1.077a.47.47 0 0 0-.042.077.449.449 0 0 0-.023.135c0 .11.039.204.117.282a.4.4 0 0 0 .277.112c.066 0 .13-.017.188-.053a.437.437 0 0 0 .153-.17zM72.36 177.26l.618-1.124.63 1.124a.543.543 0 0 0 .094.129.46.46 0 0 0 .118.071c.039.015.078.023.117.023a.373.373 0 0 0 .271-.117.387.387 0 0 0 .118-.283.483.483 0 0 0-.07-.241l-.648-1.042 1.335.042a.373.373 0 0 0 .394-.377.373.373 0 0 0-.394-.377l-1.323.048.664-1.083a.397.397 0 0 0 .042-.106.333.333 0 0 0 .017-.106.401.401 0 0 0-.053-.2.388.388 0 0 0-.323-.2.355.355 0 0 0-.189.059.514.514 0 0 0-.164.176l-.636 1.148-.635-1.165a.378.378 0 0 0-.065-.089.116.116 0 0 0-.03-.029.18.18 0 0 0-.035-.029.087.087 0 0 0-.04-.024.13.13 0 0 0-.042-.018.06.06 0 0 0-.035-.011.128.128 0 0 0-.042-.006.128.128 0 0 0-.04-.006.393.393 0 0 0-.277.117.367.367 0 0 0-.118.277c0 .078.023.155.07.23l.654 1.065-1.306-.048a.404.404 0 0 0-.218.059.334.334 0 0 0-.13.136.4.4 0 0 0-.04.182c0 .102.032.19.1.265a.38.38 0 0 0 .288.112l1.323-.042-.67 1.077a.478.478 0 0 0-.042.077.46.46 0 0 0-.023.135c0 .11.04.204.118.282a.4.4 0 0 0 .276.112c.067 0 .13-.017.188-.053a.436.436 0 0 0 .153-.17zM85.335 177.26l.618-1.124.63 1.124a.54.54 0 0 0 .093.129c.04.032.079.055.118.071.04.015.079.023.118.023a.373.373 0 0 0 .27-.117.387.387 0 0 0 .118-.283.487.487 0 0 0-.07-.241l-.648-1.042 1.336.042a.373.373 0 0 0 .394-.377.373.373 0 0 0-.394-.377l-1.324.048.665-1.083a.394.394 0 0 0 .041-.106.333.333 0 0 0 .018-.106.401.401 0 0 0-.053-.2.388.388 0 0 0-.324-.2.355.355 0 0 0-.188.059.514.514 0 0 0-.165.176l-.635 1.148-.636-1.165a.402.402 0 0 0-.094-.118.177.177 0 0 0-.035-.029.087.087 0 0 0-.041-.024.13.13 0 0 0-.042-.018.061.061 0 0 0-.035-.011.128.128 0 0 0-.041-.006.128.128 0 0 0-.041-.006.393.393 0 0 0-.277.117.368.368 0 0 0-.118.277.43.43 0 0 0 .071.23l.653 1.065-1.306-.048a.404.404 0 0 0-.218.059.335.335 0 0 0-.13.136.4.4 0 0 0-.04.182c0 .102.033.19.1.265a.38.38 0 0 0 .288.112l1.324-.042-.671 1.077a.478.478 0 0 0-.041.077.449.449 0 0 0-.024.135c0 .11.04.204.118.282a.4.4 0 0 0 .277.112c.066 0 .129-.017.188-.053a.436.436 0 0 0 .153-.17zM98.31 177.26l.617-1.124.63 1.124a.543.543 0 0 0 .094.129.46.46 0 0 0 .118.071c.039.015.078.023.117.023a.374.374 0 0 0 .271-.117.406.406 0 0 0 .1-.401.514.514 0 0 0-.053-.123l-.647-1.042 1.335.042c.126 0 .222-.038.289-.112a.376.376 0 0 0 .106-.265.376.376 0 0 0-.106-.265c-.067-.074-.163-.112-.289-.112l-1.324.048.665-1.083a.357.357 0 0 0 .041-.106.328.328 0 0 0 .018-.106.404.404 0 0 0-.194-.347.333.333 0 0 0-.37.006.514.514 0 0 0-.165.176l-.636 1.148-.636-1.165a.378.378 0 0 0-.065-.089.116.116 0 0 0-.029-.029.18.18 0 0 0-.035-.029.087.087 0 0 0-.041-.024.13.13 0 0 0-.041-.018.061.061 0 0 0-.036-.011.128.128 0 0 0-.04-.006.128.128 0 0 0-.042-.006.393.393 0 0 0-.276.117.367.367 0 0 0-.118.277c0 .078.023.155.07.23l.653 1.065-1.306-.048a.404.404 0 0 0-.217.059.334.334 0 0 0-.13.136.4.4 0 0 0-.041.182c0 .102.033.19.1.265a.38.38 0 0 0 .288.112l1.324-.042-.67 1.077a.478.478 0 0 0-.042.077.46.46 0 0 0-.023.135c0 .11.039.204.117.282a.4.4 0 0 0 .277.112c.067 0 .13-.017.188-.053a.437.437 0 0 0 .153-.17zM111.284 177.26l.617-1.124.63 1.124a.565.565 0 0 0 .094.129.463.463 0 0 0 .118.071.326.326 0 0 0 .118.023.37.37 0 0 0 .27-.117.385.385 0 0 0 .118-.283.477.477 0 0 0-.071-.241l-.647-1.042 1.336.042a.372.372 0 0 0 .394-.377.372.372 0 0 0-.394-.377l-1.324.048.665-1.083a.421.421 0 0 0 .041-.106.328.328 0 0 0 .018-.106.404.404 0 0 0-.195-.347.331.331 0 0 0-.37.006.512.512 0 0 0-.165.176l-.636 1.148-.635-1.165a.33.33 0 0 0-.065-.089.114.114 0 0 0-.029-.029.214.214 0 0 0-.035-.029.089.089 0 0 0-.042-.024.119.119 0 0 0-.041-.018.06.06 0 0 0-.035-.011.13.13 0 0 0-.041-.006.133.133 0 0 0-.042-.006.39.39 0 0 0-.276.117.366.366 0 0 0-.118.277.43.43 0 0 0 .071.23l.653 1.065-1.306-.048a.404.404 0 0 0-.218.059.33.33 0 0 0-.129.136.393.393 0 0 0-.042.182c0 .102.034.19.1.265a.382.382 0 0 0 .289.112l1.324-.042-.671 1.077a.404.404 0 0 0-.041.077.45.45 0 0 0-.024.135c0 .11.039.204.118.282a.398.398 0 0 0 .276.112c.067 0 .13-.017.189-.053a.45.45 0 0 0 .153-.17z" fill="#FF007A"/><path d="M30.56 202.646c.914 0 1.709-.213 2.383-.641.2-.13.3-.294.3-.494a.511.511 0 0 0-.14-.359.44.44 0 0 0-.342-.159.476.476 0 0 0-.236.065 9.066 9.066 0 0 1-.511.258 3.172 3.172 0 0 1-.542.183 2.872 2.872 0 0 1-.688.082c-.46 0-.865-.08-1.218-.241a2.228 2.228 0 0 1-.86-.688 3.173 3.173 0 0 1-.494-1.042 4.921 4.921 0 0 1-.164-1.318c0-.482.055-.922.164-1.318.11-.4.273-.749.489-1.047a2.18 2.18 0 0 1 .841-.695 2.684 2.684 0 0 1 1.189-.253c.176 0 .343.01.5.03.157.019.3.051.43.094.129.039.23.072.305.1.075.027.165.069.271.123l.182.089a.514.514 0 0 0 .095.035.89.89 0 0 0 .1.006.553.553 0 0 0 .518-.541.453.453 0 0 0-.077-.253.579.579 0 0 0-.235-.206 4.442 4.442 0 0 0-2.136-.542c-.805 0-1.516.191-2.136.571a3.737 3.737 0 0 0-1.418 1.559c-.33.663-.495 1.418-.495 2.266 0 .827.157 1.569.471 2.224a3.64 3.64 0 0 0 1.371 1.547c.6.377 1.295.565 2.083.565zm6.7-.841c-.566 0-1.009-.198-1.33-.594-.322-.397-.483-.938-.483-1.624 0-.691.159-1.234.477-1.63.321-.397.767-.595 1.335-.595.565 0 1.008.2 1.33.601.322.396.483.937.483 1.624 0 .69-.16 1.231-.477 1.624-.318.392-.763.59-1.336.594zm0 .806c.474 0 .904-.08 1.288-.241.384-.165.698-.387.941-.665a2.97 2.97 0 0 0 .56-.959c.129-.365.194-.751.194-1.159 0-.565-.114-1.073-.342-1.524a2.595 2.595 0 0 0-1.024-1.095c-.455-.274-.994-.412-1.618-.412-.474 0-.904.081-1.288.242-.38.16-.695.38-.942.659-.243.278-.43.6-.559.965-.13.36-.194.749-.194 1.165 0 .411.065.798.194 1.159.13.361.316.68.56.959.242.278.556.5.94.665.385.161.815.241 1.29.241zm4.763-.094c.16 0 .3-.049.417-.147a.526.526 0 0 0 .177-.418v-2.795c.016-.549.176-.985.482-1.306a1.47 1.47 0 0 1 1.113-.489c.388 0 .696.124.923.371.228.247.342.606.342 1.077v3.142c0 .176.056.316.17.418a.632.632 0 0 0 .418.147c.16 0 .3-.049.418-.147a.518.518 0 0 0 .182-.418v-3.13c0-.385-.055-.724-.165-1.018a1.717 1.717 0 0 0-.465-.712 1.864 1.864 0 0 0-.676-.4 2.42 2.42 0 0 0-.83-.136c-.447 0-.84.09-1.177.271a1.65 1.65 0 0 0-.735.783v-.418c0-.169-.059-.3-.177-.394a.621.621 0 0 0-.411-.142c-.161 0-.3.049-.418.147a.491.491 0 0 0-.177.406v4.743c0 .176.057.316.17.418a.632.632 0 0 0 .419.147zm7.264 0c.16 0 .3-.051.417-.153a.538.538 0 0 0 .177-.43v-4.454h.935c.142 0 .246-.035.312-.106a.373.373 0 0 0 .106-.276.379.379 0 0 0-.106-.271c-.07-.079-.174-.118-.312-.118h-.935v-.488c0-.29.014-.52.041-.689a.857.857 0 0 1 .147-.394.45.45 0 0 1 .241-.17c.09-.028.216-.042.377-.042h.5c.13 0 .23-.043.3-.129a.5.5 0 0 0 .106-.318.506.506 0 0 0-.112-.323.346.346 0 0 0-.294-.142h-.724c-1.18 0-1.77.659-1.77 1.977v.718h-.713c-.14 0-.249.039-.323.118a.379.379 0 0 0-.106.271c0 .109.035.202.106.276.074.071.182.106.323.106h.712v4.454c0 .185.06.328.177.43a.617.617 0 0 0 .418.153zm3.61 0c.16 0 .3-.053.417-.159a.547.547 0 0 0 .183-.435v-4.678a.557.557 0 0 0-.177-.436.596.596 0 0 0-.412-.159.625.625 0 0 0-.423.159.557.557 0 0 0-.177.436v4.678c0 .192.057.339.17.441a.603.603 0 0 0 .419.153zm.006-7.155c.22 0 .396-.063.53-.189a.663.663 0 0 0 .205-.506.676.676 0 0 0-.2-.506.73.73 0 0 0-.53-.194.759.759 0 0 0-.54.194.666.666 0 0 0-.207.506c0 .208.069.377.206.506a.76.76 0 0 0 .536.189zm2.745 7.155c.16 0 .302-.049.423-.147a.5.5 0 0 0 .183-.412v-2.877c0-.499.147-.869.44-1.113.3-.243.709-.364 1.23-.364.13 0 .23-.047.3-.142a.543.543 0 0 0 .107-.335.581.581 0 0 0-.118-.365.392.392 0 0 0-.33-.153c-.396 0-.745.124-1.047.371a1.76 1.76 0 0 0-.594.918l.012-.724a.454.454 0 0 0-.036-.182.452.452 0 0 0-.218-.247.432.432 0 0 0-.158-.065.628.628 0 0 0-.177-.024.655.655 0 0 0-.423.147.485.485 0 0 0-.177.401v4.754c0 .18.057.32.17.418a.625.625 0 0 0 .413.141zm4.233 0a.64.64 0 0 0 .424-.147.507.507 0 0 0 .182-.418v-2.783c0-.565.145-1.008.436-1.33.294-.322.684-.483 1.17-.483.393 0 .695.124.907.371.216.247.324.626.324 1.136v3.083a.54.54 0 0 0 .17.424.632.632 0 0 0 .418.147.64.64 0 0 0 .424-.147.531.531 0 0 0 .176-.424v-2.701c0-.604.151-1.069.453-1.394.302-.33.689-.495 1.16-.495.395 0 .7.118.911.354.212.235.318.588.318 1.059v3.183c0 .18.057.32.17.418a.632.632 0 0 0 .418.147.64.64 0 0 0 .424-.147.514.514 0 0 0 .177-.418v-3.154c0-.384-.057-.722-.17-1.012a1.722 1.722 0 0 0-.466-.706 1.908 1.908 0 0 0-.676-.394 2.572 2.572 0 0 0-.836-.13c-.502 0-.934.112-1.294.336-.358.223-.62.559-.789 1.006a1.767 1.767 0 0 0-.694-.977c-.338-.243-.752-.365-1.242-.365-.42 0-.794.09-1.124.271-.325.18-.58.453-.765.818v-.471a.447.447 0 0 0-.182-.382.636.636 0 0 0-.412-.142c-.16 0-.3.049-.418.148a.5.5 0 0 0-.176.406v4.748c0 .18.057.32.17.418a.61.61 0 0 0 .412.147zm14.328.006a.68.68 0 0 0 .465-.171c.133-.114.2-.273.2-.477v-2.9h1.754c.482 0 .908-.042 1.276-.124.37-.086.695-.222.977-.406.283-.188.496-.443.642-.765.149-.322.223-.706.223-1.153 0-.863-.257-1.485-.77-1.865-.514-.385-1.258-.577-2.23-.577h-2.53a.67.67 0 0 0-.483.194.642.642 0 0 0-.195.471v7.125c0 .204.067.363.2.477.134.114.29.171.471.171zm.665-4.566v-2.813h1.777c.62 0 1.071.1 1.354.3.282.2.423.561.423 1.083 0 .533-.147.906-.441 1.118-.294.208-.757.312-1.389.312h-1.724zm7.406 4.654c.823 0 1.41-.359 1.759-1.077v.436c0 .117.027.219.082.306.059.082.13.145.212.188.086.039.18.059.282.059a.624.624 0 0 0 .412-.147.525.525 0 0 0 .177-.418v-3.319c0-.714-.208-1.239-.624-1.577-.416-.337-.984-.506-1.706-.506-.836 0-1.558.165-2.166.495a.35.35 0 0 0-.147.135.33.33 0 0 0-.047.176c0 .036.004.071.012.106.012.036.026.071.041.106.02.032.041.063.065.094a.821.821 0 0 0 .088.077.51.51 0 0 0 .1.047.373.373 0 0 0 .259-.012c.204-.086.367-.153.488-.2.126-.047.31-.096.554-.147.243-.055.48-.082.712-.082.792 0 1.188.396 1.188 1.188v.577c-.424 0-.782.006-1.077.017-.29.008-.58.028-.87.059a3.844 3.844 0 0 0-.707.124 2.54 2.54 0 0 0-.511.218c-.161.086-.285.194-.371.323a1.569 1.569 0 0 0-.206.453 2.32 2.32 0 0 0-.07.606c0 .542.191.959.576 1.254.384.294.883.441 1.495.441zm.117-.777c-.325 0-.584-.078-.776-.235-.193-.157-.289-.4-.289-.73 0-.157.016-.29.047-.4a.629.629 0 0 1 .177-.294c.09-.082.196-.147.318-.194.121-.047.288-.085.5-.112.215-.031.449-.051.7-.059.25-.012.565-.017.941-.017v.164c0 .546-.162.995-.488 1.348-.326.353-.702.529-1.13.529zm4.328.136c.42.298.938.498 1.553.6.228.035.451.053.671.053.338 0 .645-.038.924-.112a2.36 2.36 0 0 0 .741-.33c.212-.149.377-.341.495-.576a1.78 1.78 0 0 0 .176-.806c0-.432-.133-.783-.4-1.054-.267-.27-.7-.482-1.3-.635l-.989-.241c-.396-.098-.657-.194-.782-.289-.122-.094-.183-.253-.183-.476a.6.6 0 0 1 .177-.442.99.99 0 0 1 .464-.253 2.58 2.58 0 0 1 .66-.076 3.175 3.175 0 0 1 .488.041c.07.012.145.028.224.047.078.016.145.034.2.053.058.016.121.035.188.059.07.02.125.037.165.053.039.016.086.035.14.059.06.019.099.033.118.041.071.024.136.035.195.035.055 0 .106-.01.153-.029a.357.357 0 0 0 .117-.077.357.357 0 0 0 .071-.117.444.444 0 0 0 .023-.142c0-.168-.084-.294-.252-.376a4.022 4.022 0 0 0-.842-.306 4.12 4.12 0 0 0-1.077-.135c-.855 0-1.486.196-1.894.588-.279.271-.418.614-.418 1.03 0 .153.014.292.041.418.031.125.07.235.118.329.047.094.114.18.2.259.086.078.172.145.259.2.09.055.206.11.347.165.141.051.273.096.394.135.126.035.28.077.465.124l1 .253c.322.082.555.19.7.323a.679.679 0 0 1 .218.524c0 .314-.13.549-.388.706-.255.157-.585.235-.989.235-.576 0-1.137-.166-1.683-.5a.545.545 0 0 0-.276-.082.371.371 0 0 0-.283.118.38.38 0 0 0-.111.27c0 .138.06.249.182.336zm5.787 0c.42.298.938.498 1.554.6.227.035.45.053.67.053.338 0 .646-.038.924-.112a2.36 2.36 0 0 0 .742-.33 1.53 1.53 0 0 0 .494-.576 1.78 1.78 0 0 0 .176-.806c0-.432-.133-.783-.4-1.054-.266-.27-.7-.482-1.3-.635l-.989-.241c-.396-.098-.657-.194-.782-.289-.122-.094-.183-.253-.183-.476a.6.6 0 0 1 .177-.442.99.99 0 0 1 .465-.253c.192-.051.412-.076.659-.076a3.178 3.178 0 0 1 .488.041c.07.012.145.028.224.047.078.016.145.034.2.053.059.016.121.035.188.059.07.02.126.037.165.053l.141.059c.059.019.098.033.118.041.07.024.135.035.194.035.055 0 .106-.01.153-.029a.357.357 0 0 0 .117-.077.357.357 0 0 0 .071-.117.444.444 0 0 0 .024-.142c0-.168-.085-.294-.253-.376a4.02 4.02 0 0 0-.842-.306 4.119 4.119 0 0 0-1.077-.135c-.855 0-1.486.196-1.894.588-.279.271-.418.614-.418 1.03 0 .153.014.292.041.418.032.125.07.235.118.329.047.094.114.18.2.259.086.078.172.145.259.2.09.055.206.11.347.165.141.051.273.096.394.135.126.035.28.077.465.124l1 .253c.322.082.555.19.7.323a.68.68 0 0 1 .218.524c0 .314-.13.549-.388.706-.255.157-.585.235-.989.235-.576 0-1.137-.166-1.683-.5a.545.545 0 0 0-.276-.082.371.371 0 0 0-.282.118.38.38 0 0 0-.112.27c0 .138.06.249.182.336zm12.26.547c.369 0 .625-.22.771-.659l1.518-4.49a.606.606 0 0 0 .035-.2.416.416 0 0 0-.018-.123.37.37 0 0 0-.047-.112.411.411 0 0 0-.07-.094.317.317 0 0 0-.089-.071.575.575 0 0 0-.647-.012.518.518 0 0 0-.194.283l-1.359 4.236-1.383-3.989c-.145-.424-.402-.636-.771-.636-.372 0-.631.212-.777.636l-1.382 3.989-1.354-4.236a.508.508 0 0 0-.2-.283.556.556 0 0 0-.43-.082.582.582 0 0 0-.217.094.495.495 0 0 0-.088.071.561.561 0 0 0-.112.206.422.422 0 0 0-.018.123c0 .067.012.134.036.2l1.518 4.49c.141.439.398.659.771.659.4 0 .682-.241.847-.724l1.406-4.013 1.401 4.013c.168.483.453.724.853.724zm6.063-.712c-.564 0-1.008-.198-1.329-.594-.322-.397-.483-.938-.483-1.624 0-.691.159-1.234.477-1.63.321-.397.767-.595 1.335-.595.565 0 1.009.2 1.33.601.322.396.483.937.483 1.624 0 .69-.159 1.231-.477 1.624-.318.392-.763.59-1.336.594zm0 .806c.475 0 .905-.08 1.289-.241.385-.165.698-.387.942-.665.243-.279.429-.598.559-.959.129-.365.194-.751.194-1.159a3.33 3.33 0 0 0-.342-1.524 2.59 2.59 0 0 0-1.023-1.095c-.455-.274-.995-.412-1.619-.412-.474 0-.904.081-1.288.242-.381.16-.694.38-.942.659-.243.278-.429.6-.559.965-.129.36-.194.749-.194 1.165 0 .411.065.798.194 1.159.13.361.316.68.559.959.244.278.557.5.942.665.384.161.814.241 1.288.241zm4.77-.094c.16 0 .302-.049.423-.147a.5.5 0 0 0 .183-.412v-2.877c0-.499.147-.869.441-1.113.298-.243.708-.364 1.23-.364a.352.352 0 0 0 .3-.142.547.547 0 0 0 .106-.335.579.579 0 0 0-.118-.365.39.39 0 0 0-.329-.153c-.397 0-.746.124-1.048.371a1.761 1.761 0 0 0-.594.918l.012-.724a.448.448 0 0 0-.036-.182.361.361 0 0 0-.088-.147.446.446 0 0 0-.129-.1.43.43 0 0 0-.159-.065.631.631 0 0 0-.177-.024.652.652 0 0 0-.423.147.485.485 0 0 0-.177.401v4.754c0 .18.057.32.171.418a.626.626 0 0 0 .412.141zm5.816.094c.938 0 1.601-.361 1.989-1.083v.418c0 .184.051.326.153.424.102.094.247.141.435.141a.631.631 0 0 0 .418-.147.523.523 0 0 0 .177-.418v-7.302a.488.488 0 0 0-.177-.406.61.61 0 0 0-.412-.147c-.161 0-.3.049-.417.147a.488.488 0 0 0-.177.406v2.942c-.38-.687-1.014-1.03-1.901-1.03-.808 0-1.447.279-1.918.836-.47.557-.706 1.275-.706 2.153 0 .412.055.801.165 1.165.11.365.267.691.471.977.208.283.474.508.8.677.325.165.692.247 1.1.247zm.241-.806a1.461 1.461 0 0 1-.77-.212 1.402 1.402 0 0 1-.495-.553 3.273 3.273 0 0 1-.253-.712 3.774 3.774 0 0 1 .006-1.542c.059-.247.147-.48.265-.7a1.37 1.37 0 0 1 .512-.524c.22-.133.479-.2.777-.2.239 0 .455.042.647.124.196.082.357.194.482.335.13.138.238.302.324.495.09.188.153.386.188.594.04.208.059.426.059.653 0 .345-.029.649-.088.912a2.176 2.176 0 0 1-.283.7 1.264 1.264 0 0 1-.541.471 1.954 1.954 0 0 1-.83.159z" fill="#393333"/><rect x="25.699" y="217.567" width="94.587" height="16.57" rx="8.285" fill="#F3F1FF"/><path d="m33.437 227.412.618-1.124.63 1.124a.543.543 0 0 0 .094.129.49.49 0 0 0 .117.071c.04.015.079.023.118.023a.37.37 0 0 0 .27-.118.383.383 0 0 0 .118-.282.483.483 0 0 0-.07-.241l-.648-1.042 1.336.041c.126 0 .222-.037.288-.111a.373.373 0 0 0 .106-.265.373.373 0 0 0-.394-.377l-1.324.047.665-1.082a.41.41 0 0 0 .041-.106.333.333 0 0 0 .018-.106.401.401 0 0 0-.053-.2.388.388 0 0 0-.324-.2.346.346 0 0 0-.188.059.514.514 0 0 0-.165.176l-.635 1.148-.636-1.166a.37.37 0 0 0-.064-.088.102.102 0 0 0-.03-.029.235.235 0 0 0-.035-.03.094.094 0 0 0-.041-.023.13.13 0 0 0-.041-.018.062.062 0 0 0-.036-.012.166.166 0 0 0-.041-.005.128.128 0 0 0-.041-.006.393.393 0 0 0-.277.117.367.367 0 0 0-.117.277c0 .078.023.155.07.229l.653 1.065-1.306-.047a.404.404 0 0 0-.218.059.332.332 0 0 0-.13.135.405.405 0 0 0-.04.183c0 .102.033.19.1.265a.38.38 0 0 0 .288.111l1.324-.041-.67 1.077a.478.478 0 0 0-.042.077.46.46 0 0 0-.023.135c0 .11.039.204.117.282a.4.4 0 0 0 .277.112c.066 0 .13-.018.188-.053a.436.436 0 0 0 .153-.17zM46.412 227.412l.617-1.124.63 1.124a.542.542 0 0 0 .094.129c.04.031.079.055.118.071.04.015.078.023.118.023a.37.37 0 0 0 .27-.118.383.383 0 0 0 .118-.282.487.487 0 0 0-.07-.241l-.648-1.042 1.336.041c.125 0 .221-.037.288-.111a.373.373 0 0 0 .106-.265.373.373 0 0 0-.394-.377l-1.324.047.665-1.082a.41.41 0 0 0 .041-.106.336.336 0 0 0 .018-.106.401.401 0 0 0-.053-.2.387.387 0 0 0-.324-.2.347.347 0 0 0-.188.059.515.515 0 0 0-.165.176l-.636 1.148-.635-1.166a.358.358 0 0 0-.065-.088.103.103 0 0 0-.03-.029.24.24 0 0 0-.034-.03.094.094 0 0 0-.042-.023.13.13 0 0 0-.04-.018.062.062 0 0 0-.036-.012.166.166 0 0 0-.041-.005.128.128 0 0 0-.041-.006.392.392 0 0 0-.277.117.367.367 0 0 0-.118.277c0 .078.024.155.07.229l.654 1.065-1.306-.047a.405.405 0 0 0-.218.059.332.332 0 0 0-.13.135.403.403 0 0 0-.04.183c0 .102.033.19.1.265a.38.38 0 0 0 .288.111l1.324-.041-.671 1.077a.478.478 0 0 0-.041.077.472.472 0 0 0-.024.135c0 .11.04.204.118.282a.4.4 0 0 0 .276.112c.067 0 .13-.018.189-.053a.438.438 0 0 0 .153-.17zM59.386 227.412l.618-1.124.63 1.124a.54.54 0 0 0 .094.129c.039.031.078.055.117.071.04.015.079.023.118.023a.37.37 0 0 0 .27-.118.383.383 0 0 0 .118-.282.484.484 0 0 0-.07-.241l-.648-1.042 1.336.041c.126 0 .222-.037.288-.111a.373.373 0 0 0 .106-.265.373.373 0 0 0-.394-.377l-1.324.047.665-1.082a.403.403 0 0 0 .041-.106.333.333 0 0 0 .018-.106.401.401 0 0 0-.053-.2.388.388 0 0 0-.324-.2.347.347 0 0 0-.188.059.513.513 0 0 0-.165.176l-.635 1.148-.636-1.166a.38.38 0 0 0-.094-.117.23.23 0 0 0-.035-.03.094.094 0 0 0-.041-.023.128.128 0 0 0-.041-.018.063.063 0 0 0-.036-.012.166.166 0 0 0-.04-.005.128.128 0 0 0-.042-.006.393.393 0 0 0-.277.117.368.368 0 0 0-.117.277c0 .078.023.155.07.229l.653 1.065-1.306-.047a.404.404 0 0 0-.218.059.332.332 0 0 0-.129.135.403.403 0 0 0-.041.183c0 .102.033.19.1.265a.38.38 0 0 0 .288.111l1.324-.041-.67 1.077a.47.47 0 0 0-.042.077.449.449 0 0 0-.023.135c0 .11.039.204.117.282a.4.4 0 0 0 .277.112c.066 0 .13-.018.188-.053a.437.437 0 0 0 .153-.17zM72.36 227.412l.618-1.124.63 1.124a.543.543 0 0 0 .094.129.49.49 0 0 0 .118.071c.039.015.078.023.117.023a.37.37 0 0 0 .271-.118.383.383 0 0 0 .118-.282.483.483 0 0 0-.07-.241l-.648-1.042 1.335.041c.126 0 .222-.037.289-.111a.373.373 0 0 0 .106-.265.373.373 0 0 0-.394-.377l-1.324.047.664-1.082a.41.41 0 0 0 .042-.106.333.333 0 0 0 .017-.106.401.401 0 0 0-.053-.2.388.388 0 0 0-.323-.2.346.346 0 0 0-.189.059.514.514 0 0 0-.164.176l-.636 1.148-.635-1.166a.37.37 0 0 0-.065-.088.102.102 0 0 0-.03-.029.235.235 0 0 0-.035-.03.094.094 0 0 0-.04-.023.13.13 0 0 0-.042-.018.062.062 0 0 0-.035-.012.166.166 0 0 0-.042-.005.128.128 0 0 0-.04-.006.393.393 0 0 0-.277.117.367.367 0 0 0-.118.277c0 .078.023.155.07.229l.654 1.065-1.306-.047a.404.404 0 0 0-.218.059.332.332 0 0 0-.13.135.405.405 0 0 0-.04.183c0 .102.032.19.1.265a.38.38 0 0 0 .288.111l1.323-.041-.67 1.077a.478.478 0 0 0-.042.077.46.46 0 0 0-.023.135c0 .11.04.204.118.282a.4.4 0 0 0 .276.112c.067 0 .13-.018.188-.053a.436.436 0 0 0 .153-.17zM85.335 227.412l.618-1.124.63 1.124a.54.54 0 0 0 .093.129c.04.031.079.055.118.071.04.015.079.023.118.023a.37.37 0 0 0 .27-.118.383.383 0 0 0 .118-.282.487.487 0 0 0-.07-.241l-.648-1.042 1.336.041c.125 0 .222-.037.288-.111a.373.373 0 0 0 .106-.265.373.373 0 0 0-.394-.377l-1.324.047.665-1.082a.407.407 0 0 0 .041-.106.333.333 0 0 0 .018-.106.401.401 0 0 0-.053-.2.388.388 0 0 0-.324-.2.347.347 0 0 0-.188.059.514.514 0 0 0-.165.176l-.635 1.148-.636-1.166a.38.38 0 0 0-.094-.117.23.23 0 0 0-.035-.03.094.094 0 0 0-.041-.023.13.13 0 0 0-.042-.018.063.063 0 0 0-.035-.012.166.166 0 0 0-.041-.005.128.128 0 0 0-.041-.006.393.393 0 0 0-.277.117.368.368 0 0 0-.118.277c0 .078.024.155.071.229l.653 1.065-1.306-.047a.404.404 0 0 0-.218.059.333.333 0 0 0-.13.135.405.405 0 0 0-.04.183c0 .102.033.19.1.265a.38.38 0 0 0 .288.111l1.324-.041-.671 1.077a.478.478 0 0 0-.041.077.449.449 0 0 0-.024.135c0 .11.04.204.118.282a.4.4 0 0 0 .277.112c.066 0 .129-.018.188-.053a.436.436 0 0 0 .153-.17zM98.31 227.412l.617-1.124.63 1.124a.543.543 0 0 0 .094.129.49.49 0 0 0 .118.071c.039.015.078.023.117.023a.372.372 0 0 0 .271-.118.406.406 0 0 0 .1-.4.514.514 0 0 0-.053-.123l-.647-1.042 1.335.041c.126 0 .222-.037.289-.111a.376.376 0 0 0 .106-.265.376.376 0 0 0-.106-.265c-.067-.074-.163-.112-.289-.112l-1.324.047.665-1.082a.368.368 0 0 0 .041-.106.328.328 0 0 0 .018-.106.404.404 0 0 0-.194-.347.325.325 0 0 0-.182-.053.346.346 0 0 0-.189.059.514.514 0 0 0-.165.176l-.635 1.148-.636-1.166a.358.358 0 0 0-.064-.088.102.102 0 0 0-.03-.029.235.235 0 0 0-.035-.03.094.094 0 0 0-.041-.023.13.13 0 0 0-.041-.018.062.062 0 0 0-.036-.012.166.166 0 0 0-.04-.005.128.128 0 0 0-.042-.006.393.393 0 0 0-.276.117.367.367 0 0 0-.118.277c0 .078.023.155.07.229l.653 1.065-1.306-.047a.404.404 0 0 0-.217.059.332.332 0 0 0-.13.135.405.405 0 0 0-.041.183c0 .102.033.19.1.265a.38.38 0 0 0 .288.111l1.324-.041-.67 1.077a.478.478 0 0 0-.042.077.46.46 0 0 0-.023.135c0 .11.039.204.117.282a.4.4 0 0 0 .277.112c.067 0 .13-.018.188-.053a.437.437 0 0 0 .153-.17zM111.284 227.412l.617-1.124.63 1.124a.565.565 0 0 0 .094.129.493.493 0 0 0 .118.071.326.326 0 0 0 .118.023.368.368 0 0 0 .27-.118.381.381 0 0 0 .118-.282.477.477 0 0 0-.071-.241l-.647-1.042 1.336.041a.372.372 0 0 0 .394-.376.372.372 0 0 0-.394-.377l-1.324.047.665-1.082a.436.436 0 0 0 .041-.106.328.328 0 0 0 .018-.106.404.404 0 0 0-.195-.347.323.323 0 0 0-.182-.053.343.343 0 0 0-.188.059.512.512 0 0 0-.165.176l-.636 1.148-.635-1.166a.501.501 0 0 0-.029-.047.501.501 0 0 0-.065-.07.296.296 0 0 0-.035-.03.096.096 0 0 0-.042-.023.119.119 0 0 0-.041-.018.062.062 0 0 0-.035-.012.17.17 0 0 0-.041-.005.133.133 0 0 0-.042-.006.39.39 0 0 0-.276.117.366.366 0 0 0-.118.277c0 .078.024.155.071.229l.653 1.065-1.306-.047a.404.404 0 0 0-.218.059.327.327 0 0 0-.129.135.397.397 0 0 0-.042.183c0 .102.034.19.1.265a.381.381 0 0 0 .289.111l1.324-.041-.671 1.077a.404.404 0 0 0-.041.077.45.45 0 0 0-.024.135c0 .11.039.204.118.282a.398.398 0 0 0 .276.112c.067 0 .13-.018.189-.053a.45.45 0 0 0 .153-.17z" fill="#FF007A"/><g filter="url(#b)"><rect x="36.611" y="246.188" width="78.177" height="24.101" rx="12.051" fill="#FF007A"/><path d="M59.465 262.738h4.218a.517.517 0 0 0 .412-.17.616.616 0 0 0 .148-.406.6.6 0 0 0-.153-.406.5.5 0 0 0-.407-.177h-3.5v-6.572c0-.224-.071-.397-.212-.518a.742.742 0 0 0-.512-.189c-.2 0-.373.063-.518.189-.145.121-.218.294-.218.518v7.002a.734.734 0 0 0 .741.729zm8.452-.794c-.545 0-.973-.188-1.283-.565-.306-.377-.459-.9-.459-1.571 0-.679.153-1.208.46-1.589.31-.38.737-.57 1.282-.57s.97.192 1.277.576c.31.381.465.908.465 1.583 0 .671-.153 1.194-.46 1.571-.305.377-.733.565-1.282.565zm0 .877c.4 0 .767-.055 1.1-.165.334-.114.616-.265.848-.453a2.72 2.72 0 0 0 .594-.677c.165-.259.284-.531.359-.818.078-.29.118-.59.118-.9a3.39 3.39 0 0 0-.195-1.153 2.974 2.974 0 0 0-.564-.965 2.47 2.47 0 0 0-.948-.665 3.326 3.326 0 0 0-1.312-.247c-.49 0-.932.084-1.324.253-.392.164-.71.39-.953.676a3.1 3.1 0 0 0-.553.965 3.4 3.4 0 0 0-.189 1.136c0 .392.063.767.189 1.124.125.353.308.673.547.959.243.282.56.508.953.677.392.168.836.253 1.33.253zm6.964 2.489c.89 0 1.598-.222 2.124-.665.53-.444.794-1.11.794-2.001v-5.172c0-.192-.06-.341-.182-.447a.641.641 0 0 0-.824-.03.518.518 0 0 0-.2.365v.394a2.597 2.597 0 0 0-.418-.511 1.598 1.598 0 0 0-.582-.33 2.544 2.544 0 0 0-.871-.135c-.557 0-1.044.133-1.46.4a2.556 2.556 0 0 0-.947 1.088c-.212.459-.317.983-.317 1.571 0 .875.249 1.577.747 2.107.498.529 1.169.794 2.012.794.847 0 1.45-.327 1.807-.982v.982c0 .538-.16.955-.477 1.254-.314.298-.747.447-1.3.447-.173 0-.348-.016-.524-.047a2.626 2.626 0 0 1-.4-.089 5.707 5.707 0 0 1-.394-.135c-.165-.063-.271-.102-.318-.118l-.065-.023-.059-.012h-.053c-.078 0-.149.02-.212.059a.47.47 0 0 0-.147.159.478.478 0 0 0-.047.206.45.45 0 0 0 .224.388c.216.134.51.247.882.341.377.095.78.142 1.207.142zm.07-3.413a1.612 1.612 0 0 1-1.188-.541c-.318-.354-.477-.871-.477-1.554 0-.294.031-.567.094-.818.067-.251.165-.478.294-.682.13-.204.304-.363.524-.477.224-.118.48-.176.771-.176.29 0 .54.054.747.164.212.11.377.267.495.471.121.2.21.426.264.677.055.251.083.535.083.853-.004.702-.153 1.224-.448 1.565-.294.341-.68.514-1.159.518zm9.097.83c.2 0 .373-.061.518-.183.145-.121.217-.294.217-.518v-7.037c0-.224-.072-.396-.217-.518a.76.76 0 0 0-.512-.188c-.2 0-.373.063-.518.188-.145.122-.218.294-.218.518v7.037c0 .22.07.393.212.518a.78.78 0 0 0 .518.183zm3.44.011a.668.668 0 0 0 .452-.164.563.563 0 0 0 .194-.454v-2.677c.004-.537.157-.971.46-1.3.301-.33.662-.494 1.082-.494.36 0 .653.117.877.353.223.235.335.574.335 1.018v3.1c0 .197.063.35.188.459a.67.67 0 0 0 .448.159c.176 0 .33-.053.459-.159a.567.567 0 0 0 .194-.459v-3.089c0-.384-.057-.723-.171-1.018a1.777 1.777 0 0 0-.47-.706 1.984 1.984 0 0 0-.683-.394 2.39 2.39 0 0 0-.812-.135c-.447 0-.836.086-1.165.259-.33.168-.577.415-.742.741v-.33a.522.522 0 0 0-.188-.429.679.679 0 0 0-.453-.159.686.686 0 0 0-.459.165.539.539 0 0 0-.194.441v4.654c0 .197.063.35.188.459.13.106.282.159.46.159z" fill="#fff"/></g></g><defs><filter id="a" x="-26.177" y="87.137" width="203.753" height="225.329" filterUnits="userSpaceOnUse" color-interpolation-filters="sRGB"><feFlood flood-opacity="0" result="BackgroundImageFix"/><feColorMatrix in="SourceAlpha" values="0 0 0 0 0 0 0 0 0 0 0 0 0 0 0 0 0 0 127 0" result="hardAlpha"/><feOffset/><feGaussianBlur stdDeviation="21.089"/><feComposite in2="hardAlpha" operator="out"/><feColorMatrix values="0 0 0 0 0 0 0 0 0 0 0 0 0 0 0 0 0 0 0.1 0"/><feBlend in2="BackgroundImageFix" result="effect1_dropShadow_8_328"/><feBlend in="SourceGraphic" in2="effect1_dropShadow_8_328" result="shape"/></filter><filter id="b" x="35.104" y="245.435" width="81.19" height="27.114" filterUnits="userSpaceOnUse" color-interpolation-filters="sRGB"><feFlood flood-opacity="0" result="BackgroundImageFix"/><feColorMatrix in="SourceAlpha" values="0 0 0 0 0 0 0 0 0 0 0 0 0 0 0 0 0 0 127 0" result="hardAlpha"/><feOffset dy=".753"/><feGaussianBlur stdDeviation=".753"/><feColorMatrix values="0 0 0 0 0.0627451 0 0 0 0 0.0941176 0 0 0 0 0.156863 0 0 0 0.05 0"/><feBlend in2="BackgroundImageFix" result="effect1_dropShadow_8_328"/><feBlend in="SourceGraphic" in2="effect1_dropShadow_8_328" result="shape"/></filter></defs></svg>