<svg width="385" height="311" fill="none" xmlns="http://www.w3.org/2000/svg"><rect width="202.57" height="163.874" rx="2.276" fill="#F3F1FF"/><rect x="9.105" y="27.313" width="184.362" height="127.457" rx="2.276" fill="#fff"/><rect x="18.209" y="36.417" width="166.153" height="109.249" rx="2.276" fill="#F3F1FF"/><rect x="27.525" y="45.595" width="73.975" height="4.552" rx="2.276" fill="#fff"/><rect x="27.525" y="54.698" width="73.975" height="4.552" rx="2.276" fill="#fff"/><rect x="27.525" y="63.803" width="47.49" height="4.552" rx="2.276" fill="#fff"/><rect x="108.38" y="45.595" width="73.975" height="4.552" rx="2.276" fill="#fff"/><rect x="108.38" y="54.698" width="73.975" height="4.552" rx="2.276" fill="#fff"/><rect x="108.38" y="63.803" width="47.49" height="4.552" rx="2.276" fill="#fff"/><rect x="27.525" y="113.802" width="46.09" height="4.552" rx="2.276" fill="#fff"/><rect x="27.525" y="122.906" width="46.09" height="4.552" rx="2.276" fill="#fff"/><rect x="27.525" y="132.01" width="29.589" height="4.552" rx="2.276" fill="#fff"/><rect x="82.72" y="113.802" width="46.09" height="4.552" rx="2.276" fill="#fff"/><rect x="82.72" y="122.906" width="46.09" height="4.552" rx="2.276" fill="#fff"/><rect x="82.72" y="132.01" width="29.589" height="4.552" rx="2.276" fill="#fff"/><circle cx="13.658" cy="13.656" r="4.552" fill="#C4C4C4"/><circle cx="27.884" cy="13.656" r="4.552" fill="#C4C4C4"/><circle cx="42.109" cy="13.656" r="4.552" fill="#C4C4C4"/><rect x="169.569" y="9.673" width="23.899" height="7.966" rx="3.983" fill="#D9D9D9"/><g filter="url(#a)"><rect x="107.445" y="127.411" width="252.915" height="158.866" rx="4.628" fill="#fff" shape-rendering="crispEdges"/><path d="M133.085 266.328h207.864M133.085 234.942h207.864M133.085 203.555h207.864M133.085 172.168h207.864M133.085 140.783h207.864M133.346 140.521V266.59M167.904 140.521V266.59M202.458 140.521V266.59M237.016 140.521V266.59M271.574 140.521V266.59M306.129 140.521V266.59M340.687 140.521V266.59" stroke="#CCC" stroke-width=".522" stroke-dasharray="2.09 1.04"/><path d="M127.391 265.822v.68c0 .365-.033.673-.098.924-.066.251-.16.453-.282.606-.122.153-.27.264-.444.333a1.563 1.563 0 0 1-.581.101c-.171 0-.33-.021-.474-.064a1.124 1.124 0 0 1-.392-.205 1.254 1.254 0 0 1-.294-.373 1.999 1.999 0 0 1-.187-.557 4.08 4.08 0 0 1-.064-.765v-.68c0-.365.033-.671.098-.918a1.57 1.57 0 0 1 .285-.593c.122-.151.269-.259.44-.325.174-.065.368-.098.582-.098.173 0 .332.022.477.065a1.078 1.078 0 0 1 .683.56c.081.149.143.331.186.547.043.217.065.471.065.762zm-.57.772v-.866c0-.2-.012-.376-.036-.527a1.668 1.668 0 0 0-.101-.391.77.77 0 0 0-.172-.264.615.615 0 0 0-.235-.147.865.865 0 0 0-.297-.048.802.802 0 0 0-.358.076.643.643 0 0 0-.263.236c-.07.108-.123.25-.16.425a3.23 3.23 0 0 0-.055.64v.866c0 .2.012.376.034.529.024.153.06.286.107.398.047.11.104.201.171.272a.63.63 0 0 0 .233.159c.09.033.189.049.297.049a.79.79 0 0 0 .364-.079.656.656 0 0 0 .26-.248c.072-.114.125-.26.159-.438.035-.179.052-.393.052-.642zM123.876 236.554v.465h-2.916v-.407l1.46-1.625c.179-.2.318-.369.416-.508.1-.14.169-.266.208-.376a.993.993 0 0 0 .061-.343.846.846 0 0 0-.092-.398.686.686 0 0 0-.263-.287.785.785 0 0 0-.422-.107.966.966 0 0 0-.496.116.719.719 0 0 0-.294.318 1.086 1.086 0 0 0-.098.471h-.566c0-.251.055-.48.166-.688.11-.208.273-.373.489-.496.216-.124.483-.187.799-.187.281 0 .522.05.722.15.2.098.353.237.459.417.108.177.162.385.162.624 0 .13-.022.263-.067.398a2.03 2.03 0 0 1-.181.398 3.037 3.037 0 0 1-.266.391c-.1.129-.207.255-.321.38l-1.194 1.294h2.234zm1.322-1.655-.453-.117.224-2.218h2.286v.523h-1.806l-.134 1.212c.081-.047.184-.091.309-.132.126-.041.271-.061.434-.061.206 0 .391.036.554.107.163.069.302.169.416.3.117.131.205.288.267.471.061.184.091.389.091.615 0 .215-.029.411-.088.591-.058.18-.144.337-.261.471a1.16 1.16 0 0 1-.44.309c-.176.074-.383.11-.621.11-.18 0-.35-.024-.511-.073a1.314 1.314 0 0 1-.429-.229 1.27 1.27 0 0 1-.306-.386 1.574 1.574 0 0 1-.147-.545h.539c.024.168.073.308.147.423.073.114.169.2.287.26.121.057.26.085.42.085a.863.863 0 0 0 .358-.07.715.715 0 0 0 .263-.202.918.918 0 0 0 .162-.318c.039-.125.058-.264.058-.42 0-.14-.019-.271-.058-.391a.895.895 0 0 0-.174-.315.771.771 0 0 0-.279-.209.894.894 0 0 0-.379-.076c-.19 0-.334.025-.432.076a1.64 1.64 0 0 0-.297.209zM121.673 203.511l-.453-.116.223-2.219h2.286v.524h-1.805l-.135 1.211c.082-.047.185-.09.309-.131.127-.041.272-.061.435-.061.206 0 .391.035.554.107.163.069.302.169.416.3.116.13.205.287.266.471.061.183.092.388.092.615 0 .214-.03.411-.089.591a1.337 1.337 0 0 1-.26.471 1.178 1.178 0 0 1-.441.309c-.175.073-.382.11-.621.11-.179 0-.35-.024-.511-.073a1.217 1.217 0 0 1-.734-.616 1.526 1.526 0 0 1-.147-.544h.538c.025.167.074.308.147.422.074.114.17.201.288.26.12.057.26.086.419.086a.876.876 0 0 0 .358-.07.717.717 0 0 0 .263-.202.899.899 0 0 0 .163-.319 1.429 1.429 0 0 0 0-.811.898.898 0 0 0-.175-.315.757.757 0 0 0-.278-.208.895.895 0 0 0-.38-.076c-.189 0-.333.025-.431.076-.096.051-.195.12-.297.208zm5.606-.462v.679c0 .366-.032.674-.098.925a1.604 1.604 0 0 1-.281.605 1.068 1.068 0 0 1-.444.334 1.584 1.584 0 0 1-.581.101c-.172 0-.33-.021-.475-.064a1.119 1.119 0 0 1-.391-.205 1.228 1.228 0 0 1-.294-.374 1.988 1.988 0 0 1-.187-.557 3.998 3.998 0 0 1-.064-.765v-.679c0-.365.032-.671.098-.918.067-.247.162-.445.284-.594a1.04 1.04 0 0 1 .441-.324c.173-.065.367-.098.581-.098.174 0 .333.021.478.064.147.041.277.107.392.199.114.09.211.21.29.361.082.149.144.332.187.548.043.216.064.47.064.762zm-.569.771v-.866c0-.2-.012-.375-.037-.526a1.629 1.629 0 0 0-.101-.392.778.778 0 0 0-.171-.263.611.611 0 0 0-.236-.147.833.833 0 0 0-.297-.049.805.805 0 0 0-.358.077.646.646 0 0 0-.263.235c-.069.108-.122.25-.159.426a3.146 3.146 0 0 0-.055.639v.866c0 .2.011.377.034.53.024.153.06.285.107.397a.923.923 0 0 0 .171.273.654.654 0 0 0 .233.159c.09.033.188.049.297.049.138 0 .26-.027.364-.08a.649.649 0 0 0 .26-.248c.071-.114.124-.26.159-.437.035-.18.052-.394.052-.643zM123.837 169.791v.318l-1.846 4.137h-.597l1.843-3.99h-2.412v-.465h3.012zm1.361 2.335-.453-.117.224-2.218h2.286v.523h-1.806l-.134 1.212c.081-.047.184-.091.309-.132.126-.041.271-.061.434-.061.206 0 .391.036.554.107.163.07.302.169.416.3.117.131.205.288.267.471.061.184.091.389.091.615 0 .215-.029.411-.088.591-.058.18-.144.337-.261.471a1.16 1.16 0 0 1-.44.309 1.594 1.594 0 0 1-.621.111c-.18 0-.35-.025-.511-.074a1.314 1.314 0 0 1-.429-.229 1.258 1.258 0 0 1-.306-.386 1.574 1.574 0 0 1-.147-.545h.539c.024.168.073.308.147.423a.718.718 0 0 0 .287.26c.121.057.26.085.42.085a.863.863 0 0 0 .358-.07.715.715 0 0 0 .263-.202.918.918 0 0 0 .162-.318 1.4 1.4 0 0 0 .058-.419c0-.141-.019-.272-.058-.392a.895.895 0 0 0-.174-.315.769.769 0 0 0-.279-.208.894.894 0 0 0-.379-.077c-.19 0-.334.026-.432.077-.096.051-.195.12-.297.208zM119.18 138.38v4.48h-.566v-3.773l-1.142.416v-.511l1.619-.612h.089zm4.462 1.897v.679c0 .366-.033.674-.098.925a1.61 1.61 0 0 1-.282.606c-.122.153-.27.264-.444.333a1.584 1.584 0 0 1-.581.101c-.171 0-.329-.021-.474-.064a1.124 1.124 0 0 1-.392-.205 1.259 1.259 0 0 1-.294-.374 1.988 1.988 0 0 1-.186-.557 3.991 3.991 0 0 1-.065-.765v-.679c0-.365.033-.671.098-.918.067-.247.162-.445.285-.594a1.03 1.03 0 0 1 .44-.324c.174-.065.368-.098.582-.098.173 0 .332.021.477.064a1.078 1.078 0 0 1 .683.56c.081.149.144.332.186.548.043.216.065.47.065.762zm-.57.771v-.866c0-.2-.012-.375-.036-.526a1.677 1.677 0 0 0-.101-.392.765.765 0 0 0-.172-.263.615.615 0 0 0-.235-.147.841.841 0 0 0-.297-.049.802.802 0 0 0-.358.077.64.64 0 0 0-.263.235 1.24 1.24 0 0 0-.159.426 3.139 3.139 0 0 0-.056.639v.866c0 .2.012.377.034.53.025.153.06.285.107.397a.905.905 0 0 0 .172.273.642.642 0 0 0 .232.159c.09.033.189.049.297.049a.79.79 0 0 0 .364-.08.649.649 0 0 0 .26-.248c.072-.114.125-.26.159-.437.035-.18.052-.394.052-.643zm4.095-.771v.679c0 .366-.033.674-.098.925a1.595 1.595 0 0 1-.282.606c-.122.153-.27.264-.443.333a1.59 1.59 0 0 1-.582.101c-.171 0-.329-.021-.474-.064a1.132 1.132 0 0 1-.392-.205 1.24 1.24 0 0 1-.293-.374 1.988 1.988 0 0 1-.187-.557 3.998 3.998 0 0 1-.064-.765v-.679c0-.365.032-.671.097-.918.068-.247.163-.445.285-.594.123-.151.269-.259.441-.324.173-.065.367-.098.581-.098.174 0 .333.021.478.064a1.081 1.081 0 0 1 .682.56c.082.149.144.332.187.548.043.216.064.47.064.762zm-.569.771v-.866c0-.2-.012-.375-.037-.526a1.629 1.629 0 0 0-.101-.392.778.778 0 0 0-.171-.263.619.619 0 0 0-.236-.147.841.841 0 0 0-.297-.049.805.805 0 0 0-.358.077.64.64 0 0 0-.263.235c-.069.108-.122.25-.159.426a3.146 3.146 0 0 0-.055.639v.866c0 .2.011.377.033.53.025.153.061.285.108.397a.903.903 0 0 0 .171.273.65.65 0 0 0 .232.159c.09.033.189.049.297.049a.79.79 0 0 0 .364-.08.651.651 0 0 0 .261-.248c.071-.114.124-.26.159-.437.034-.18.052-.394.052-.643zM122.25 271.273h.572l1.46 3.633 1.456-3.633h.575l-1.811 4.456h-.447l-1.805-4.456zm-.187 0h.505l.082 2.718v1.738h-.587v-4.456zm3.929 0h.505v4.456h-.587v-1.738l.082-2.718zm1.307 2.837v-.07c0-.239.035-.46.104-.664.069-.206.169-.385.3-.536.13-.153.288-.271.474-.355.186-.085.394-.128.624-.128.233 0 .442.043.628.128.187.084.347.202.477.355.133.151.234.33.303.536.069.204.104.425.104.664v.07c0 .239-.035.46-.104.664-.069.204-.17.383-.303.536-.13.151-.289.269-.474.355a1.502 1.502 0 0 1-.624.125c-.233 0-.442-.042-.628-.125a1.422 1.422 0 0 1-.477-.355 1.606 1.606 0 0 1-.3-.536 2.059 2.059 0 0 1-.104-.664zm.566-.07v.07c0 .165.019.321.058.468.039.145.097.274.175.386a.876.876 0 0 0 .296.266.87.87 0 0 0 .414.095c.155 0 .29-.032.407-.095a.849.849 0 0 0 .293-.266c.078-.112.136-.241.175-.386.041-.147.061-.303.061-.468v-.07c0-.163-.02-.317-.061-.462a1.186 1.186 0 0 0-.178-.389.816.816 0 0 0-.704-.367.829.829 0 0 0-.41.098.874.874 0 0 0-.293.269 1.223 1.223 0 0 0-.175.389 1.772 1.772 0 0 0-.058.462zm3.724-.915v2.604h-.566v-3.311h.536l.03.707zm-.134.823-.236-.009c.002-.227.036-.436.101-.628.065-.193.157-.362.275-.504a1.233 1.233 0 0 1 .97-.45c.164 0 .311.022.441.067a.799.799 0 0 1 .334.208c.093.096.165.22.214.373.049.151.073.336.073.554v2.17h-.569v-2.176a.954.954 0 0 0-.076-.416.467.467 0 0 0-.224-.229.8.8 0 0 0-.361-.074.836.836 0 0 0-.385.089.907.907 0 0 0-.297.245 1.22 1.22 0 0 0-.193.358 1.3 1.3 0 0 0-.067.422zm5.119 1.138v-4.057h.569v4.7h-.52l-.049-.643zm-2.228-.976v-.064c0-.253.031-.483.092-.689.063-.208.152-.386.266-.535a1.167 1.167 0 0 1 .952-.465c.208 0 .39.036.545.11.157.071.29.176.398.315.11.137.197.302.26.496s.107.413.131.658v.281a2.877 2.877 0 0 1-.131.655c-.063.194-.15.359-.26.496a1.08 1.08 0 0 1-.398.315 1.312 1.312 0 0 1-.551.107c-.194 0-.371-.042-.532-.125a1.262 1.262 0 0 1-.414-.352 1.718 1.718 0 0 1-.266-.533 2.349 2.349 0 0 1-.092-.67zm.57-.064v.064c0 .165.016.32.049.465.034.145.087.273.159.383.071.11.162.197.272.26.11.061.242.092.395.092.188 0 .342-.04.462-.12a.89.89 0 0 0 .294-.315c.073-.13.13-.272.171-.425v-.738a1.598 1.598 0 0 0-.107-.324 1 1 0 0 0-.178-.282.757.757 0 0 0-.266-.198.86.86 0 0 0-.37-.074.786.786 0 0 0-.401.098.777.777 0 0 0-.272.263c-.072.11-.125.239-.159.386-.033.145-.049.3-.049.465zm5.061 1.117v-1.705a.69.69 0 0 0-.079-.339.522.522 0 0 0-.233-.227.845.845 0 0 0-.386-.079.904.904 0 0 0-.376.073.651.651 0 0 0-.251.193.422.422 0 0 0-.089.257h-.566c0-.118.031-.236.092-.352.061-.116.149-.221.263-.315.117-.096.255-.172.416-.227.164-.057.345-.085.545-.085.241 0 .453.04.637.122.185.082.33.205.434.37.106.164.159.369.159.615v1.543c0 .11.009.227.028.352.02.124.05.231.089.321v.049h-.591a1.023 1.023 0 0 1-.067-.26 2.008 2.008 0 0 1-.025-.306zm.098-1.441.006.397h-.572a2.16 2.16 0 0 0-.432.04 1.005 1.005 0 0 0-.318.113.51.51 0 0 0-.263.459c0 .104.024.199.07.285a.512.512 0 0 0 .212.205.764.764 0 0 0 .352.073.928.928 0 0 0 .459-.11.96.96 0 0 0 .315-.269.582.582 0 0 0 .128-.309l.242.272a.819.819 0 0 1-.116.285 1.388 1.388 0 0 1-.628.535 1.2 1.2 0 0 1-.483.092c-.225 0-.421-.044-.591-.131a1.005 1.005 0 0 1-.391-.352.93.93 0 0 1-.138-.499c0-.178.035-.334.104-.468a.898.898 0 0 1 .3-.34c.13-.092.287-.161.471-.208.184-.047.389-.07.615-.07h.658zm2.24 1.664.921-2.968h.606l-1.328 3.822a2.137 2.137 0 0 1-.122.263 1.29 1.29 0 0 1-.19.273.911.911 0 0 1-.282.208.845.845 0 0 1-.388.082c-.045 0-.102-.006-.172-.018a1.36 1.36 0 0 1-.147-.031l-.003-.459.077.006a.929.929 0 0 0 .404-.045.493.493 0 0 0 .226-.169.98.98 0 0 0 .163-.321l.235-.643zm-.676-2.968.86 2.57.147.597-.407.208-1.218-3.375h.618zM157.953 271.273v4.456h-.582v-4.456h.582zm1.432 0v.484h-3.443v-.484h3.443zm2.307 3.691v-2.546h.57v3.311h-.542l-.028-.765zm.107-.698.236-.006c0 .22-.023.424-.07.612a1.32 1.32 0 0 1-.221.484 1.047 1.047 0 0 1-.401.321 1.45 1.45 0 0 1-.602.113c-.162 0-.309-.023-.444-.07a.897.897 0 0 1-.343-.217.99.99 0 0 1-.223-.383 1.844 1.844 0 0 1-.077-.566v-2.136h.566v2.142c0 .149.017.272.049.37a.621.621 0 0 0 .138.23.507.507 0 0 0 .196.116.75.75 0 0 0 .226.034c.241 0 .432-.046.573-.138a.794.794 0 0 0 .303-.376c.063-.159.094-.336.094-.53zm2.7 1.524c-.231 0-.44-.039-.628-.116a1.425 1.425 0 0 1-.48-.334 1.463 1.463 0 0 1-.306-.508 1.844 1.844 0 0 1-.107-.642v-.129c0-.269.039-.509.119-.719.08-.212.188-.392.324-.539.137-.146.292-.258.466-.333.173-.076.352-.113.538-.113.237 0 .441.04.612.122.174.082.315.196.425.343.111.145.192.316.245.514.053.196.08.41.08.643v.254h-2.473v-.463h1.907v-.042a1.413 1.413 0 0 0-.092-.429.773.773 0 0 0-.245-.343c-.112-.089-.265-.134-.459-.134a.772.772 0 0 0-.633.321 1.197 1.197 0 0 0-.181.389 1.96 1.96 0 0 0-.064.529v.129c0 .157.021.305.064.443.045.137.109.258.193.362a.927.927 0 0 0 .309.244c.122.06.261.089.416.089.2 0 .369-.041.508-.122.139-.082.26-.191.364-.328l.343.273a1.58 1.58 0 0 1-.272.309c-.11.098-.246.177-.407.238a1.558 1.558 0 0 1-.566.092zm3.877-.939a.488.488 0 0 0-.055-.227.474.474 0 0 0-.218-.193 1.789 1.789 0 0 0-.489-.153 3.759 3.759 0 0 1-.499-.137 1.522 1.522 0 0 1-.376-.193.814.814 0 0 1-.236-.266.835.835 0 0 1 .003-.729.998.998 0 0 1 .248-.309 1.22 1.22 0 0 1 .389-.211c.151-.051.319-.076.504-.076.266 0 .492.047.68.14.188.094.331.22.431.377.1.155.15.327.15.517h-.566a.483.483 0 0 0-.082-.266.614.614 0 0 0-.236-.217.754.754 0 0 0-.377-.086.855.855 0 0 0-.382.073.488.488 0 0 0-.211.181.451.451 0 0 0-.034.398c.023.047.061.09.116.131a.943.943 0 0 0 .233.11c.1.035.227.07.383.104.271.062.494.135.67.221a.98.98 0 0 1 .391.315.775.775 0 0 1 .129.453.87.87 0 0 1-.352.71 1.286 1.286 0 0 1-.404.202 1.8 1.8 0 0 1-.523.07c-.292 0-.539-.052-.741-.156a1.146 1.146 0 0 1-.459-.404.964.964 0 0 1-.156-.523h.569a.582.582 0 0 0 .135.37c.082.09.182.154.3.193.118.037.235.055.352.055.155 0 .284-.02.388-.061a.546.546 0 0 0 .242-.168.392.392 0 0 0 .083-.245zm3.397.235v-4.057h.569v4.7h-.52l-.049-.643zm-2.228-.976v-.064c0-.253.03-.483.092-.689.063-.208.152-.386.266-.535a1.17 1.17 0 0 1 .952-.465c.208 0 .389.036.544.11.157.071.29.176.398.315.11.137.197.302.26.496s.107.413.132.658v.281a2.93 2.93 0 0 1-.132.655c-.063.194-.15.359-.26.496a1.08 1.08 0 0 1-.398.315c-.157.072-.34.107-.551.107-.193 0-.371-.042-.532-.125a1.259 1.259 0 0 1-.413-.352 1.718 1.718 0 0 1-.266-.533 2.314 2.314 0 0 1-.092-.67zm.569-.064v.064c0 .165.016.32.049.465.035.145.088.273.159.383.071.11.162.197.272.26a.806.806 0 0 0 .395.092.817.817 0 0 0 .756-.435c.073-.13.131-.272.171-.425v-.738a1.598 1.598 0 0 0-.107-.324 1.02 1.02 0 0 0-.177-.282.767.767 0 0 0-.266-.198.864.864 0 0 0-.371-.074.789.789 0 0 0-.401.098.777.777 0 0 0-.272.263c-.071.11-.124.239-.159.386-.033.145-.049.3-.049.465zm5.062 1.117v-1.705a.69.69 0 0 0-.08-.339.522.522 0 0 0-.233-.227.841.841 0 0 0-.385-.079.909.909 0 0 0-.377.073.659.659 0 0 0-.251.193.42.42 0 0 0-.088.257h-.566a.75.75 0 0 1 .091-.352c.062-.116.149-.221.264-.315a1.31 1.31 0 0 1 .416-.227c.163-.057.345-.085.544-.085.241 0 .453.04.637.122.186.082.33.205.435.37.106.164.159.369.159.615v1.543c0 .11.009.227.027.352.021.124.05.231.089.321v.049h-.591a1.067 1.067 0 0 1-.067-.26 2.135 2.135 0 0 1-.024-.306zm.097-1.441.007.397h-.573c-.161 0-.305.014-.431.04a.987.987 0 0 0-.318.113.51.51 0 0 0-.264.459c0 .104.024.199.071.285a.51.51 0 0 0 .211.205.767.767 0 0 0 .352.073.95.95 0 0 0 .774-.379.584.584 0 0 0 .129-.309l.241.272a.819.819 0 0 1-.116.285 1.36 1.36 0 0 1-.627.535 1.204 1.204 0 0 1-.484.092c-.224 0-.421-.044-.59-.131a1.008 1.008 0 0 1-.392-.352.93.93 0 0 1-.138-.499c0-.178.035-.334.104-.468.07-.137.17-.25.3-.34a1.43 1.43 0 0 1 .471-.208 2.49 2.49 0 0 1 .616-.07h.657zm2.24 1.664.922-2.968h.606l-1.329 3.822c-.03.082-.071.169-.122.263a1.254 1.254 0 0 1-.19.273.907.907 0 0 1-.281.208.85.85 0 0 1-.389.082c-.045 0-.102-.006-.171-.018a1.257 1.257 0 0 1-.147-.031l-.003-.459.076.006a.927.927 0 0 0 .404-.045.5.5 0 0 0 .227-.169 1 1 0 0 0 .162-.321l.235-.643zm-.676-2.968.86 2.57.147.597-.407.208-1.218-3.375h.618zM187.138 274.383l.884-3.11h.429l-.248 1.209-.952 3.247h-.425l.312-1.346zm-.915-3.11.704 3.048.211 1.408h-.423l-1.08-4.456h.588zm3.372 3.045.689-3.045h.59l-1.077 4.456h-.422l.22-1.411zm-1.08-3.045.86 3.11.312 1.346h-.425l-.918-3.247-.251-1.209h.422zm4.205 4.517c-.231 0-.44-.039-.628-.116a1.425 1.425 0 0 1-.48-.334 1.463 1.463 0 0 1-.306-.508 1.844 1.844 0 0 1-.107-.642v-.129c0-.269.039-.509.119-.719.08-.212.188-.392.324-.539.137-.146.292-.258.466-.333.173-.076.352-.113.538-.113.237 0 .441.04.612.122.174.082.315.196.426.343.11.145.191.316.244.514.053.196.08.41.08.643v.254h-2.473v-.463h1.907v-.042a1.413 1.413 0 0 0-.092-.429.773.773 0 0 0-.245-.343c-.112-.089-.265-.134-.459-.134a.772.772 0 0 0-.633.321 1.197 1.197 0 0 0-.181.389 1.96 1.96 0 0 0-.064.529v.129c0 .157.021.305.064.443.045.137.109.258.193.362a.927.927 0 0 0 .309.244c.122.06.261.089.416.089.2 0 .369-.041.508-.122.139-.082.26-.191.364-.328l.343.273a1.58 1.58 0 0 1-.272.309c-.11.098-.246.177-.407.238a1.558 1.558 0 0 1-.566.092zm4.036-.704v-4.057h.569v4.7h-.52l-.049-.643zm-2.228-.976v-.064c0-.253.031-.483.092-.689.063-.208.152-.386.266-.535a1.17 1.17 0 0 1 .952-.465c.208 0 .39.036.545.11.157.071.289.176.397.315.111.137.197.302.261.496.063.194.107.413.131.658v.281a2.877 2.877 0 0 1-.131.655c-.064.194-.15.359-.261.496-.108.137-.24.242-.397.315a1.312 1.312 0 0 1-.551.107 1.147 1.147 0 0 1-.946-.477 1.718 1.718 0 0 1-.266-.533 2.349 2.349 0 0 1-.092-.67zm.569-.064v.064c0 .165.017.32.049.465.035.145.088.273.159.383.072.11.163.197.273.26.11.061.242.092.395.092.187 0 .341-.04.462-.12a.879.879 0 0 0 .293-.315c.074-.13.131-.272.172-.425v-.738a1.663 1.663 0 0 0-.107-.324 1 1 0 0 0-.178-.282.757.757 0 0 0-.266-.198.863.863 0 0 0-.37-.074.786.786 0 0 0-.401.098.788.788 0 0 0-.273.263c-.071.11-.124.239-.159.386-.032.145-.049.3-.049.465zm3.676-.921v2.604h-.567v-3.311h.536l.031.707zm-.135.823-.236-.009c.002-.227.036-.436.101-.628.066-.193.157-.362.276-.504a1.23 1.23 0 0 1 .97-.45c.163 0 .31.022.44.067a.799.799 0 0 1 .334.208c.094.096.165.22.214.373.049.151.074.336.074.554v2.17h-.57v-2.176a.954.954 0 0 0-.076-.416.465.465 0 0 0-.223-.229.805.805 0 0 0-.362-.074.84.84 0 0 0-.682.334 1.22 1.22 0 0 0-.193.358 1.3 1.3 0 0 0-.067.422zm4.407 1.842c-.231 0-.44-.039-.628-.116a1.425 1.425 0 0 1-.48-.334 1.463 1.463 0 0 1-.306-.508 1.844 1.844 0 0 1-.107-.642v-.129c0-.269.039-.509.119-.719.08-.212.188-.392.324-.539.137-.146.292-.258.466-.333.173-.076.353-.113.538-.113.237 0 .441.04.612.122.174.082.315.196.426.343.11.145.191.316.244.514.053.196.08.41.08.643v.254h-2.473v-.463h1.907v-.042a1.413 1.413 0 0 0-.092-.429.773.773 0 0 0-.245-.343c-.112-.089-.265-.134-.459-.134a.772.772 0 0 0-.633.321 1.197 1.197 0 0 0-.181.389 1.96 1.96 0 0 0-.064.529v.129c0 .157.021.305.064.443.045.137.109.258.193.362a.927.927 0 0 0 .309.244c.122.06.261.089.416.089.2 0 .369-.041.508-.122.139-.082.26-.191.364-.328l.343.273a1.58 1.58 0 0 1-.272.309c-.11.098-.246.177-.407.238a1.558 1.558 0 0 1-.566.092zm3.877-.939a.476.476 0 0 0-.055-.227.476.476 0 0 0-.217-.193 1.81 1.81 0 0 0-.49-.153 3.759 3.759 0 0 1-.499-.137 1.522 1.522 0 0 1-.376-.193.814.814 0 0 1-.236-.266.835.835 0 0 1 .003-.729.998.998 0 0 1 .248-.309 1.22 1.22 0 0 1 .389-.211 1.57 1.57 0 0 1 .505-.076c.265 0 .491.047.679.14.188.094.331.22.431.377.1.155.15.327.15.517h-.566a.483.483 0 0 0-.082-.266.607.607 0 0 0-.236-.217.752.752 0 0 0-.376-.086.857.857 0 0 0-.383.073.488.488 0 0 0-.211.181.451.451 0 0 0-.034.398c.023.047.061.09.116.131a.943.943 0 0 0 .233.11c.1.035.228.07.383.104.271.062.494.135.67.221a.98.98 0 0 1 .391.315.775.775 0 0 1 .129.453.87.87 0 0 1-.352.71 1.286 1.286 0 0 1-.404.202 1.8 1.8 0 0 1-.523.07c-.292 0-.539-.052-.741-.156a1.146 1.146 0 0 1-.459-.404.964.964 0 0 1-.156-.523h.569a.588.588 0 0 0 .135.37c.082.09.182.154.3.193.118.037.236.055.352.055.155 0 .284-.02.388-.061a.54.54 0 0 0 .242-.168.392.392 0 0 0 .083-.245zm3.397.235v-4.057h.569v4.7h-.52l-.049-.643zm-2.228-.976v-.064c0-.253.03-.483.092-.689.063-.208.152-.386.266-.535a1.17 1.17 0 0 1 .952-.465c.208 0 .389.036.544.11.157.071.29.176.398.315.11.137.197.302.26.496.064.194.107.413.132.658v.281a2.875 2.875 0 0 1-.132.655c-.063.194-.15.359-.26.496a1.08 1.08 0 0 1-.398.315c-.157.072-.34.107-.551.107-.193 0-.371-.042-.532-.125a1.259 1.259 0 0 1-.413-.352 1.718 1.718 0 0 1-.266-.533 2.314 2.314 0 0 1-.092-.67zm.569-.064v.064c0 .165.016.32.049.465.035.145.088.273.159.383.072.11.162.197.273.26a.8.8 0 0 0 .394.092.817.817 0 0 0 .756-.435c.074-.13.131-.272.172-.425v-.738a1.666 1.666 0 0 0-.108-.324.997.997 0 0 0-.177-.282.767.767 0 0 0-.266-.198.864.864 0 0 0-.371-.074.783.783 0 0 0-.4.098.78.78 0 0 0-.273.263c-.071.11-.124.239-.159.386-.033.145-.049.3-.049.465zm5.062 1.117v-1.705a.69.69 0 0 0-.08-.339.517.517 0 0 0-.233-.227.841.841 0 0 0-.385-.079.909.909 0 0 0-.377.073.648.648 0 0 0-.25.193.416.416 0 0 0-.089.257h-.566a.75.75 0 0 1 .091-.352c.062-.116.149-.221.264-.315a1.31 1.31 0 0 1 .416-.227c.163-.057.345-.085.545-.085.24 0 .452.04.636.122a.956.956 0 0 1 .435.37c.106.164.159.369.159.615v1.543c0 .11.009.227.027.352.021.124.05.231.089.321v.049h-.591a1.067 1.067 0 0 1-.067-.26 2.135 2.135 0 0 1-.024-.306zm.098-1.441.006.397h-.573c-.161 0-.305.014-.431.04a.987.987 0 0 0-.318.113.51.51 0 0 0-.264.459c0 .104.024.199.071.285a.51.51 0 0 0 .211.205.767.767 0 0 0 .352.073.94.94 0 0 0 .774-.379.576.576 0 0 0 .129-.309l.241.272a.819.819 0 0 1-.116.285 1.36 1.36 0 0 1-.627.535 1.204 1.204 0 0 1-.484.092c-.224 0-.421-.044-.59-.131a1.008 1.008 0 0 1-.392-.352.93.93 0 0 1-.138-.499c0-.178.035-.334.104-.468.07-.137.17-.25.3-.34a1.43 1.43 0 0 1 .471-.208 2.49 2.49 0 0 1 .616-.07h.658zm2.24 1.664.921-2.968h.606l-1.329 3.822c-.03.082-.071.169-.122.263a1.254 1.254 0 0 1-.19.273.907.907 0 0 1-.281.208.85.85 0 0 1-.389.082c-.045 0-.102-.006-.171-.018a1.257 1.257 0 0 1-.147-.031l-.003-.459.076.006a.923.923 0 0 0 .404-.045.495.495 0 0 0 .227-.169 1 1 0 0 0 .162-.321l.236-.643zm-.677-2.968.86 2.57.147.597-.407.208-1.218-3.375h.618zM225.58 271.273v4.456h-.581v-4.456h.581zm1.432 0v.484h-3.442v-.484h3.442zm1.142-.244v4.7h-.566v-4.7h.566zm-.135 2.919-.235-.009c.002-.227.035-.436.1-.628.066-.193.158-.362.276-.504a1.23 1.23 0 0 1 .97-.45c.163 0 .31.022.441.067.13.043.241.112.333.208.094.096.165.22.214.373.049.151.074.336.074.554v2.17h-.569v-2.176a.953.953 0 0 0-.077-.416.465.465 0 0 0-.223-.229.804.804 0 0 0-.361-.074.84.84 0 0 0-.683.334 1.243 1.243 0 0 0-.26.78zm5.046 1.016v-2.546h.57v3.311h-.542l-.028-.765zm.107-.698.236-.006c0 .22-.023.424-.07.612a1.32 1.32 0 0 1-.221.484 1.051 1.051 0 0 1-.4.321 1.458 1.458 0 0 1-.603.113c-.162 0-.309-.023-.444-.07a.897.897 0 0 1-.343-.217.99.99 0 0 1-.223-.383 1.844 1.844 0 0 1-.077-.566v-2.136h.566v2.142c0 .149.017.272.049.37a.621.621 0 0 0 .138.23.507.507 0 0 0 .196.116.75.75 0 0 0 .226.034c.241 0 .432-.046.573-.138a.794.794 0 0 0 .303-.376c.063-.159.094-.336.094-.53zm1.892-1.328v2.791h-.566v-3.311h.55l.016.52zm1.034-.538-.003.526a.836.836 0 0 0-.135-.018 1.156 1.156 0 0 0-.14-.007.905.905 0 0 0-.346.062.708.708 0 0 0-.254.171.813.813 0 0 0-.166.263c-.038.1-.064.21-.076.331l-.159.091a2.6 2.6 0 0 1 .058-.563c.041-.175.103-.33.187-.465a.905.905 0 0 1 .318-.318.892.892 0 0 1 .606-.101c.053.008.09.017.11.028zm2.451 2.451a.476.476 0 0 0-.055-.227.476.476 0 0 0-.217-.193 1.786 1.786 0 0 0-.49-.153 3.801 3.801 0 0 1-.499-.137 1.54 1.54 0 0 1-.376-.193.814.814 0 0 1-.236-.266.745.745 0 0 1-.082-.358c0-.131.028-.254.085-.371.06-.116.142-.219.248-.309a1.22 1.22 0 0 1 .389-.211 1.57 1.57 0 0 1 .505-.076c.265 0 .492.047.679.14.188.094.332.22.432.377.1.155.15.327.15.517h-.566a.484.484 0 0 0-.083-.266.607.607 0 0 0-.236-.217.75.75 0 0 0-.376-.086.86.86 0 0 0-.383.073.488.488 0 0 0-.211.181.451.451 0 0 0-.033.398.36.36 0 0 0 .116.131.916.916 0 0 0 .232.11c.1.035.228.07.383.104.271.062.495.135.67.221a.983.983 0 0 1 .392.315.775.775 0 0 1 .128.453.87.87 0 0 1-.352.71 1.275 1.275 0 0 1-.404.202 1.8 1.8 0 0 1-.523.07 1.6 1.6 0 0 1-.74-.156 1.146 1.146 0 0 1-.459-.404.964.964 0 0 1-.156-.523h.569a.588.588 0 0 0 .134.37c.082.09.182.154.3.193.119.037.236.055.352.055.155 0 .285-.02.389-.061a.546.546 0 0 0 .242-.168.391.391 0 0 0 .082-.245zm3.397.235v-4.057h.569v4.7h-.52l-.049-.643zm-2.228-.976v-.064c0-.253.031-.483.092-.689.063-.208.152-.386.266-.535a1.174 1.174 0 0 1 .952-.465c.208 0 .39.036.545.11.157.071.289.176.398.315.11.137.196.302.26.496.063.194.107.413.131.658v.281a2.877 2.877 0 0 1-.131.655c-.064.194-.15.359-.26.496a1.089 1.089 0 0 1-.398.315 1.312 1.312 0 0 1-.551.107 1.15 1.15 0 0 1-.946-.477 1.718 1.718 0 0 1-.266-.533 2.349 2.349 0 0 1-.092-.67zm.569-.064v.064c0 .165.017.32.049.465.035.145.088.273.16.383.071.11.162.197.272.26.11.061.242.092.395.092.187 0 .341-.04.462-.12a.879.879 0 0 0 .293-.315c.074-.13.131-.272.172-.425v-.738a1.663 1.663 0 0 0-.107-.324 1 1 0 0 0-.178-.282.757.757 0 0 0-.266-.198.86.86 0 0 0-.37-.074.786.786 0 0 0-.401.098.777.777 0 0 0-.272.263c-.072.11-.125.239-.16.386-.032.145-.049.3-.049.465zm5.062 1.117v-1.705a.69.69 0 0 0-.08-.339.52.52 0 0 0-.232-.227.845.845 0 0 0-.386-.079.901.901 0 0 0-.376.073.651.651 0 0 0-.251.193.422.422 0 0 0-.089.257h-.566c0-.118.031-.236.092-.352.061-.116.149-.221.263-.315a1.31 1.31 0 0 1 .416-.227c.163-.057.345-.085.545-.085.241 0 .453.04.636.122a.956.956 0 0 1 .435.37c.106.164.159.369.159.615v1.543c0 .11.009.227.028.352.02.124.05.231.088.321v.049h-.59a1.062 1.062 0 0 1-.068-.26 2.135 2.135 0 0 1-.024-.306zm.098-1.441.006.397h-.572a2.16 2.16 0 0 0-.432.04 1.005 1.005 0 0 0-.318.113.51.51 0 0 0-.263.459c0 .104.023.199.07.285a.515.515 0 0 0 .211.205.77.77 0 0 0 .352.073.955.955 0 0 0 .775-.379.582.582 0 0 0 .128-.309l.242.272a.819.819 0 0 1-.116.285 1.388 1.388 0 0 1-.628.535 1.203 1.203 0 0 1-.483.092c-.225 0-.422-.044-.591-.131a1.015 1.015 0 0 1-.392-.352.938.938 0 0 1-.137-.499c0-.178.034-.334.104-.468a.898.898 0 0 1 .3-.34c.13-.092.287-.161.471-.208.183-.047.388-.07.615-.07h.658zm2.24 1.664.921-2.968h.606l-1.328 3.822a2.153 2.153 0 0 1-.123.263 1.285 1.285 0 0 1-.189.273.923.923 0 0 1-.282.208.848.848 0 0 1-.388.082c-.045 0-.102-.006-.172-.018a1.36 1.36 0 0 1-.147-.031l-.003-.459.077.006a.929.929 0 0 0 .404-.045.498.498 0 0 0 .226-.169 1 1 0 0 0 .162-.321l.236-.643zm-.676-2.968.86 2.57.146.597-.407.208-1.218-3.375h.619zM264.264 271.273v4.456h-.591v-4.456h.591zm1.867 2.005v.483h-1.995v-.483h1.995zm.303-2.005v.484h-2.298v-.484h2.298zm1.104 1.665v2.791h-.566v-3.311h.551l.015.52zm1.035-.538-.003.526a.836.836 0 0 0-.135-.018 1.185 1.185 0 0 0-.141-.007.909.909 0 0 0-.346.062.725.725 0 0 0-.254.171.828.828 0 0 0-.165.263c-.039.1-.064.21-.076.331l-.159.091a2.6 2.6 0 0 1 .058-.563c.041-.175.103-.33.186-.465a.916.916 0 0 1 .319-.318.887.887 0 0 1 .606-.101.384.384 0 0 1 .11.028zm1.138.018v3.311h-.569v-3.311h.569zm-.612-.878c0-.092.028-.17.083-.233.057-.063.141-.095.251-.095.108 0 .19.032.248.095a.328.328 0 0 1 .088.233.32.32 0 0 1-.088.226c-.058.061-.14.092-.248.092-.11 0-.194-.031-.251-.092a.334.334 0 0 1-.083-.226zm3.608 3.546v-4.057h.569v4.7h-.52l-.049-.643zm-2.228-.976v-.064c0-.253.031-.483.092-.689.063-.208.152-.386.266-.535a1.174 1.174 0 0 1 .952-.465c.208 0 .39.036.545.11.157.071.289.176.398.315.11.137.196.302.26.496.063.194.107.413.131.658v.281a2.877 2.877 0 0 1-.131.655c-.064.194-.15.359-.26.496a1.089 1.089 0 0 1-.398.315 1.312 1.312 0 0 1-.551.107 1.15 1.15 0 0 1-.946-.477 1.718 1.718 0 0 1-.266-.533 2.349 2.349 0 0 1-.092-.67zm.569-.064v.064c0 .165.017.32.049.465.035.145.088.273.16.383.071.11.162.197.272.26.11.061.242.092.395.092.187 0 .341-.04.462-.12a.89.89 0 0 0 .294-.315c.073-.13.13-.272.171-.425v-.738a1.663 1.663 0 0 0-.107-.324 1 1 0 0 0-.178-.282.757.757 0 0 0-.266-.198.86.86 0 0 0-.37-.074.786.786 0 0 0-.401.098.777.777 0 0 0-.272.263c-.072.11-.125.239-.16.386-.032.145-.049.3-.049.465zm5.062 1.117v-1.705a.69.69 0 0 0-.08-.339.52.52 0 0 0-.232-.227.845.845 0 0 0-.386-.079.901.901 0 0 0-.376.073.651.651 0 0 0-.251.193.422.422 0 0 0-.089.257h-.566c0-.118.031-.236.092-.352.061-.116.149-.221.263-.315a1.31 1.31 0 0 1 .416-.227c.163-.057.345-.085.545-.085.241 0 .453.04.636.122a.956.956 0 0 1 .435.37c.106.164.159.369.159.615v1.543c0 .11.009.227.028.352.02.124.05.231.088.321v.049h-.59a1.062 1.062 0 0 1-.068-.26 2.135 2.135 0 0 1-.024-.306zm.098-1.441.006.397h-.572a2.16 2.16 0 0 0-.432.04 1.005 1.005 0 0 0-.318.113.51.51 0 0 0-.263.459c0 .104.023.199.07.285a.515.515 0 0 0 .211.205.77.77 0 0 0 .352.073.955.955 0 0 0 .775-.379.582.582 0 0 0 .128-.309l.242.272a.819.819 0 0 1-.116.285 1.388 1.388 0 0 1-.628.535 1.203 1.203 0 0 1-.483.092c-.225 0-.422-.044-.591-.131a1.015 1.015 0 0 1-.392-.352.938.938 0 0 1-.137-.499c0-.178.034-.334.104-.468a.898.898 0 0 1 .3-.34c.13-.092.287-.161.471-.208.183-.047.389-.07.615-.07h.658zm2.24 1.664.921-2.968h.606l-1.328 3.822a2.153 2.153 0 0 1-.123.263 1.25 1.25 0 0 1-.189.273.923.923 0 0 1-.282.208.845.845 0 0 1-.388.082c-.045 0-.102-.006-.172-.018a1.36 1.36 0 0 1-.147-.031l-.003-.459.077.006a.929.929 0 0 0 .404-.045.498.498 0 0 0 .226-.169 1 1 0 0 0 .162-.321l.236-.643zm-.676-2.968.86 2.57.146.597-.407.208-1.217-3.375h.618zM295.924 274.603a.739.739 0 0 0-.049-.276.527.527 0 0 0-.166-.22 1.313 1.313 0 0 0-.324-.187 4.553 4.553 0 0 0-.52-.18 4.827 4.827 0 0 1-.597-.217 2.128 2.128 0 0 1-.456-.279 1.11 1.11 0 0 1-.291-.358 1.026 1.026 0 0 1-.101-.462 1.086 1.086 0 0 1 .413-.863c.135-.11.295-.196.481-.257s.393-.092.621-.092c.335 0 .618.064.851.193.234.126.413.293.535.499.123.204.184.422.184.655h-.588a.89.89 0 0 0-.107-.444.73.73 0 0 0-.324-.306 1.18 1.18 0 0 0-.551-.113c-.21 0-.383.031-.52.095a.677.677 0 0 0-.306.257.703.703 0 0 0-.098.37c0 .094.019.179.058.257a.688.688 0 0 0 .187.211c.085.065.194.126.324.181.133.055.291.108.474.159.253.071.472.151.655.238.184.088.335.187.453.297.121.108.209.232.267.371.059.136.088.291.088.465a1.063 1.063 0 0 1-.425.869 1.544 1.544 0 0 1-.493.242c-.19.055-.402.082-.636.082-.206 0-.409-.028-.609-.085a1.818 1.818 0 0 1-.542-.258 1.35 1.35 0 0 1-.389-.422 1.179 1.179 0 0 1-.143-.587h.587c0 .153.03.284.089.394.059.108.14.198.242.27.104.071.221.124.352.159.132.032.27.049.413.049.206 0 .38-.029.523-.086a.69.69 0 0 0 .324-.245.628.628 0 0 0 .114-.376zm3.213.56v-1.705a.69.69 0 0 0-.08-.339.52.52 0 0 0-.232-.227.845.845 0 0 0-.386-.079.901.901 0 0 0-.376.073.651.651 0 0 0-.251.193.422.422 0 0 0-.089.257h-.566a.74.74 0 0 1 .092-.352c.061-.116.149-.221.263-.315a1.31 1.31 0 0 1 .416-.227c.163-.057.345-.085.545-.085.24 0 .453.04.636.122a.956.956 0 0 1 .435.37c.106.164.159.369.159.615v1.543c0 .11.009.227.027.352.021.124.05.231.089.321v.049h-.59a1.062 1.062 0 0 1-.068-.26 2.135 2.135 0 0 1-.024-.306zm.098-1.441.006.397h-.572c-.162 0-.305.014-.432.04a1.005 1.005 0 0 0-.318.113.51.51 0 0 0-.263.459c0 .104.023.199.07.285a.51.51 0 0 0 .211.205.767.767 0 0 0 .352.073.94.94 0 0 0 .774-.379.576.576 0 0 0 .129-.309l.242.272a.823.823 0 0 1-.117.285 1.36 1.36 0 0 1-.627.535 1.204 1.204 0 0 1-.484.092c-.224 0-.421-.044-.59-.131a1.015 1.015 0 0 1-.392-.352.93.93 0 0 1-.138-.499c0-.178.035-.334.104-.468.07-.137.17-.25.3-.34.131-.092.288-.161.472-.208.183-.047.388-.07.615-.07h.658zm2.745-1.304v.434h-1.791v-.434h1.791zm-1.185-.805h.567v3.296c0 .112.017.197.052.254a.244.244 0 0 0 .134.113.568.568 0 0 0 .178.028.844.844 0 0 0 .147-.013l.119-.024.003.462a1.32 1.32 0 0 1-.178.04 1.372 1.372 0 0 1-.26.021.882.882 0 0 1-.382-.082.624.624 0 0 1-.279-.276c-.067-.13-.101-.306-.101-.526v-3.293zm3.875 3.351v-2.546h.569v3.311h-.542l-.027-.765zm.107-.698.235-.006c0 .22-.023.424-.07.612a1.318 1.318 0 0 1-.22.484 1.054 1.054 0 0 1-.401.321 1.455 1.455 0 0 1-.603.113c-.161 0-.309-.023-.444-.07a.904.904 0 0 1-.343-.217 1.002 1.002 0 0 1-.223-.383 1.844 1.844 0 0 1-.077-.566v-2.136h.567v2.142c0 .149.016.272.049.37.034.096.08.173.137.23a.507.507 0 0 0 .196.116.757.757 0 0 0 .227.034c.24 0 .431-.046.572-.138a.782.782 0 0 0 .303-.376c.063-.159.095-.336.095-.53zm1.891-1.328v2.791h-.566v-3.311h.551l.015.52zm1.034-.538-.003.526a.84.84 0 0 0-.134-.018 1.185 1.185 0 0 0-.141-.007.905.905 0 0 0-.346.062.708.708 0 0 0-.254.171.81.81 0 0 0-.165.263c-.039.1-.065.21-.077.331l-.159.091a2.6 2.6 0 0 1 .058-.563c.041-.175.103-.33.187-.465a.922.922 0 0 1 .318-.318.892.892 0 0 1 .606-.101c.053.008.09.017.11.028zm2.549 2.686v-4.057h.57v4.7h-.521l-.049-.643zm-2.227-.976v-.064c0-.253.03-.483.091-.689.064-.208.152-.386.267-.535a1.167 1.167 0 0 1 .951-.465c.208 0 .39.036.545.11.157.071.29.176.398.315.11.137.197.302.26.496s.107.413.132.658v.281a2.93 2.93 0 0 1-.132.655c-.063.194-.15.359-.26.496a1.08 1.08 0 0 1-.398.315 1.312 1.312 0 0 1-.551.107c-.194 0-.371-.042-.532-.125a1.259 1.259 0 0 1-.413-.352 1.72 1.72 0 0 1-.267-.533 2.35 2.35 0 0 1-.091-.67zm.569-.064v.064c0 .165.016.32.049.465.034.145.087.273.159.383.071.11.162.197.272.26.11.061.242.092.395.092.188 0 .342-.04.462-.12a.89.89 0 0 0 .294-.315c.073-.13.13-.272.171-.425v-.738a1.598 1.598 0 0 0-.107-.324 1.02 1.02 0 0 0-.177-.282.77.77 0 0 0-.267-.198.86.86 0 0 0-.37-.074.786.786 0 0 0-.401.098.777.777 0 0 0-.272.263c-.072.11-.125.239-.159.386-.033.145-.049.3-.049.465zm5.061 1.117v-1.705a.69.69 0 0 0-.079-.339.522.522 0 0 0-.233-.227.841.841 0 0 0-.385-.079.906.906 0 0 0-.377.073.651.651 0 0 0-.251.193.422.422 0 0 0-.089.257h-.566c0-.118.031-.236.092-.352.061-.116.149-.221.263-.315.117-.096.255-.172.416-.227.164-.057.345-.085.545-.085.241 0 .453.04.637.122.185.082.33.205.434.37.106.164.159.369.159.615v1.543c0 .11.01.227.028.352.02.124.05.231.089.321v.049h-.591a1.067 1.067 0 0 1-.067-.26 2.008 2.008 0 0 1-.025-.306zm.098-1.441.006.397h-.572c-.161 0-.305.014-.431.04a1.002 1.002 0 0 0-.319.113.55.55 0 0 0-.196.193.585.585 0 0 0 .004.551.503.503 0 0 0 .211.205.767.767 0 0 0 .352.073.928.928 0 0 0 .459-.11.96.96 0 0 0 .315-.269.582.582 0 0 0 .128-.309l.242.272a.819.819 0 0 1-.116.285 1.36 1.36 0 0 1-.628.535 1.196 1.196 0 0 1-.483.092 1.28 1.28 0 0 1-.591-.131 1.012 1.012 0 0 1-.391-.352.93.93 0 0 1-.138-.499c0-.178.035-.334.104-.468a.898.898 0 0 1 .3-.34c.13-.092.288-.161.471-.208.184-.047.389-.07.615-.07h.658zm2.24 1.664.921-2.968h.606l-1.328 3.822c-.03.082-.071.169-.122.263a1.254 1.254 0 0 1-.19.273.911.911 0 0 1-.282.208.845.845 0 0 1-.388.082c-.045 0-.102-.006-.172-.018a1.276 1.276 0 0 1-.146-.031l-.003-.459.076.006a.927.927 0 0 0 .404-.045.493.493 0 0 0 .226-.169.98.98 0 0 0 .163-.321l.235-.643zm-.676-2.968.86 2.57.147.597-.407.208-1.218-3.375h.618zM333.212 274.603a.739.739 0 0 0-.049-.276.527.527 0 0 0-.166-.22 1.313 1.313 0 0 0-.324-.187 4.553 4.553 0 0 0-.52-.18 4.827 4.827 0 0 1-.597-.217 2.128 2.128 0 0 1-.456-.279 1.11 1.11 0 0 1-.291-.358 1.026 1.026 0 0 1-.101-.462 1.086 1.086 0 0 1 .414-.863 1.47 1.47 0 0 1 .48-.257c.186-.061.393-.092.621-.092.335 0 .618.064.851.193.235.126.413.293.535.499.123.204.184.422.184.655h-.588a.89.89 0 0 0-.107-.444.73.73 0 0 0-.324-.306 1.18 1.18 0 0 0-.551-.113c-.21 0-.383.031-.52.095a.677.677 0 0 0-.306.257.703.703 0 0 0-.098.37c0 .094.019.179.058.257a.688.688 0 0 0 .187.211c.086.065.194.126.324.181.133.055.291.108.475.159.253.071.471.151.654.238.184.088.335.187.453.297.121.108.209.232.267.371.059.136.088.291.088.465a1.063 1.063 0 0 1-.425.869 1.544 1.544 0 0 1-.493.242 2.28 2.28 0 0 1-.636.082c-.206 0-.409-.028-.609-.085a1.818 1.818 0 0 1-.542-.258 1.35 1.35 0 0 1-.389-.422 1.179 1.179 0 0 1-.143-.587h.587c0 .153.03.284.089.394.059.108.14.198.242.27.104.071.221.124.352.159.132.032.27.049.413.049.206 0 .38-.029.523-.086a.69.69 0 0 0 .324-.245.628.628 0 0 0 .114-.376zm3.286.361v-2.546h.569v3.311h-.541l-.028-.765zm.107-.698.236-.006c0 .22-.023.424-.07.612a1.32 1.32 0 0 1-.221.484 1.047 1.047 0 0 1-.401.321 1.45 1.45 0 0 1-.602.113c-.162 0-.31-.023-.444-.07a.897.897 0 0 1-.343-.217.99.99 0 0 1-.223-.383 1.844 1.844 0 0 1-.077-.566v-2.136h.566v2.142c0 .149.017.272.049.37a.621.621 0 0 0 .138.23.5.5 0 0 0 .196.116.75.75 0 0 0 .226.034c.241 0 .432-.046.573-.138a.786.786 0 0 0 .302-.376c.064-.159.095-.336.095-.53zm1.892-1.141v2.604h-.567v-3.311h.536l.031.707zm-.135.823-.236-.009c.002-.227.036-.436.101-.628.066-.193.157-.362.276-.504a1.23 1.23 0 0 1 .97-.45c.163 0 .31.022.44.067a.799.799 0 0 1 .334.208c.094.096.165.22.214.373.049.151.074.336.074.554v2.17h-.57v-2.176a.954.954 0 0 0-.076-.416.469.469 0 0 0-.223-.229.805.805 0 0 0-.362-.074.84.84 0 0 0-.682.334 1.22 1.22 0 0 0-.193.358 1.3 1.3 0 0 0-.067.422zm5.12 1.138v-4.057h.569v4.7h-.52l-.049-.643zm-2.228-.976v-.064c0-.253.03-.483.092-.689.063-.208.152-.386.266-.535a1.17 1.17 0 0 1 .952-.465c.208 0 .389.036.544.11.157.071.29.176.398.315.11.137.197.302.26.496s.107.413.132.658v.281a2.93 2.93 0 0 1-.132.655c-.063.194-.15.359-.26.496a1.08 1.08 0 0 1-.398.315c-.157.072-.34.107-.551.107-.193 0-.371-.042-.532-.125a1.259 1.259 0 0 1-.413-.352 1.718 1.718 0 0 1-.266-.533 2.314 2.314 0 0 1-.092-.67zm.569-.064v.064c0 .165.016.32.049.465.035.145.088.273.159.383.071.11.162.197.272.26a.806.806 0 0 0 .395.092.817.817 0 0 0 .756-.435c.073-.13.131-.272.171-.425v-.738a1.598 1.598 0 0 0-.107-.324 1.02 1.02 0 0 0-.177-.282.767.767 0 0 0-.266-.198.864.864 0 0 0-.371-.074.789.789 0 0 0-.401.098.777.777 0 0 0-.272.263c-.071.11-.124.239-.159.386-.033.145-.049.3-.049.465zm5.062 1.117v-1.705a.69.69 0 0 0-.08-.339.522.522 0 0 0-.233-.227.841.841 0 0 0-.385-.079.909.909 0 0 0-.377.073.659.659 0 0 0-.251.193.42.42 0 0 0-.088.257h-.566a.75.75 0 0 1 .091-.352c.062-.116.149-.221.264-.315a1.31 1.31 0 0 1 .416-.227c.163-.057.345-.085.544-.085.241 0 .453.04.637.122.186.082.33.205.435.37.106.164.159.369.159.615v1.543c0 .11.009.227.027.352.021.124.05.231.089.321v.049h-.591a1.067 1.067 0 0 1-.067-.26 2.135 2.135 0 0 1-.024-.306zm.097-1.441.007.397h-.573c-.161 0-.305.014-.431.04a.987.987 0 0 0-.318.113.51.51 0 0 0-.264.459c0 .104.024.199.071.285a.51.51 0 0 0 .211.205.767.767 0 0 0 .352.073.95.95 0 0 0 .774-.379.584.584 0 0 0 .129-.309l.241.272a.819.819 0 0 1-.116.285 1.36 1.36 0 0 1-.627.535 1.204 1.204 0 0 1-.484.092c-.224 0-.421-.044-.59-.131a1.008 1.008 0 0 1-.392-.352.93.93 0 0 1-.138-.499c0-.178.035-.334.104-.468.07-.137.17-.25.3-.34a1.43 1.43 0 0 1 .471-.208c.184-.047.389-.07.615-.07h.658zm2.24 1.664.922-2.968h.606l-1.329 3.822c-.03.082-.071.169-.122.263a1.254 1.254 0 0 1-.19.273.907.907 0 0 1-.281.208.85.85 0 0 1-.389.082c-.045 0-.102-.006-.171-.018a1.257 1.257 0 0 1-.147-.031l-.003-.459.076.006a.927.927 0 0 0 .404-.045.5.5 0 0 0 .227-.169 1 1 0 0 0 .162-.321l.235-.643zm-.676-2.968.86 2.57.147.597-.407.208-1.218-3.375h.618z" fill="#333"/><path opacity=".2" fill-rule="evenodd" clip-rule="evenodd" d="m133.085 253.982 34.644-25.214 34.644-25.214 34.644-25.213 34.644 63.034 34.644-25.214 34.644-25.214v75.642H133.085v-12.607z" fill="#6B50FF"/><path d="m133.085 253.982 34.644-25.214 34.644-25.214 34.644-25.213 34.644 63.034 34.644-25.214 34.644-25.214" stroke="#0E9CFF" stroke-width="1.045" stroke-linejoin="round"/><path d="M133.086 255.813c1.011 0 1.828-.82 1.828-1.83a1.829 1.829 0 1 0-3.656 0c0 1.01.818 1.83 1.828 1.83zM167.73 230.599c1.011 0 1.828-.82 1.828-1.83a1.829 1.829 0 1 0-3.655 0c0 1.01.817 1.83 1.827 1.83zM202.373 205.385a1.83 1.83 0 1 0-.002-3.658 1.83 1.83 0 0 0 .002 3.658zM237.018 180.172a1.83 1.83 0 1 0-.002-3.658 1.83 1.83 0 0 0 .002 3.658zM271.662 243.207a1.83 1.83 0 1 0-.002-3.658 1.83 1.83 0 0 0 .002 3.658zM306.306 217.993a1.83 1.83 0 0 0 0-3.661 1.83 1.83 0 0 0-1.828 1.831 1.83 1.83 0 0 0 1.828 1.83zM340.951 192.778c1.011 0 1.828-.82 1.828-1.83a1.829 1.829 0 1 0-3.656 0c0 1.01.818 1.83 1.828 1.83z" fill="#fff" stroke="#0E9CFF" stroke-width="1.045"/></g><defs><filter id="a" x="83.048" y="103.013" width="301.709" height="207.661" filterUnits="userSpaceOnUse" color-interpolation-filters="sRGB"><feFlood flood-opacity="0" result="BackgroundImageFix"/><feColorMatrix in="SourceAlpha" values="0 0 0 0 0 0 0 0 0 0 0 0 0 0 0 0 0 0 127 0" result="hardAlpha"/><feOffset/><feGaussianBlur stdDeviation="12.199"/><feComposite in2="hardAlpha" operator="out"/><feColorMatrix values="0 0 0 0 0 0 0 0 0 0 0 0 0 0 0 0 0 0 0.1 0"/><feBlend in2="BackgroundImageFix" result="effect1_dropShadow_2_154"/><feBlend in="SourceGraphic" in2="effect1_dropShadow_2_154" result="shape"/></filter></defs></svg>