<svg width="400" height="343" fill="none" xmlns="http://www.w3.org/2000/svg"><rect x="81.411" width="268.127" height="217.632" rx="3.013" fill="#F3F1FF"/><rect x="93.463" y="36.273" width="244.025" height="169.27" rx="3.013" fill="#fff"/><rect x="105.513" y="48.363" width="219.924" height="145.088" rx="3.013" fill="#F3F1FF"/><rect x="117.562" y="60.454" width="61.006" height="6.045" rx="3.023" fill="#fff"/><rect x="117.562" y="72.544" width="61.006" height="6.045" rx="3.023" fill="#fff"/><rect x="117.562" y="84.635" width="39.165" height="6.045" rx="3.023" fill="#fff"/><rect x="179.323" y="151.134" width="61.006" height="6.025" rx="3.013" fill="#fff"/><rect x="179.323" y="163.185" width="61.006" height="6.025" rx="3.013" fill="#fff"/><rect x="179.323" y="175.235" width="39.165" height="6.025" rx="3.013" fill="#fff"/><rect x="252.38" y="151.134" width="61.006" height="6.025" rx="3.013" fill="#fff"/><rect x="252.38" y="163.185" width="61.006" height="6.025" rx="3.013" fill="#fff"/><rect x="252.38" y="175.235" width="39.165" height="6.025" rx="3.013" fill="#fff"/><circle cx="99.488" cy="18.136" r="6.025" fill="#C4C4C4"/><circle cx="118.318" cy="18.136" r="6.025" fill="#C4C4C4"/><circle cx="137.146" cy="18.136" r="6.025" fill="#C4C4C4"/><rect x="305.855" y="12.864" width="31.633" height="10.544" rx="5.272" fill="#D9D9D9"/><rect x="213.215" y="62.721" width="186.785" height="36.272" rx="2.845" fill="#FF007A"/><path fill="#F3F1FF" d="M220.746 74.771h12.051v12.051h-12.051z"/><rect x="274.221" y="77.784" width="25.608" height="6.025" rx="3.013" fill="#fff"/><rect x="305.854" y="77.784" width="25.608" height="6.025" rx="3.013" fill="#fff"/><rect x="337.486" y="77.784" width="25.608" height="6.025" rx="3.013" fill="#fff"/><rect x="381.17" y="77.784" width="11.297" height="6.025" rx="3.013" fill="#fff"/><g filter="url(#a)"><rect x="43" y="145.844" width="124.272" height="154.156" rx="3.013" fill="#fff" shape-rendering="crispEdges"/><path d="M57.364 168.978c-.177 0-.313-.048-.41-.144-.096-.105-.144-.249-.144-.434v-7.435c0-.185.048-.326.144-.422a.6.6 0 0 1 .422-.145h2.868c.916 0 1.619.225 2.109.675.498.45.747 1.081.747 1.892 0 .82-.249 1.454-.747 1.904-.49.45-1.193.675-2.109.675H57.93v2.856c0 .185-.048.329-.144.434-.089.096-.23.144-.422.144zm.566-4.338h2.17c.626 0 1.096-.14 1.41-.422.32-.289.481-.707.481-1.253 0-.546-.16-.956-.482-1.229-.313-.281-.783-.422-1.41-.422H57.93v3.326zm7.861 4.362c-.402 0-.767-.08-1.097-.241a1.938 1.938 0 0 1-.759-.65 1.65 1.65 0 0 1-.265-.916c0-.434.109-.775.325-1.024.217-.249.583-.426 1.097-.531.514-.112 1.205-.168 2.073-.168h.566v.699h-.542c-.619 0-1.109.028-1.47.084-.354.056-.603.157-.747.301-.145.137-.217.33-.217.579 0 .313.108.57.325.771.225.201.53.301.916.301.305 0 .574-.072.807-.217.233-.152.418-.353.555-.602.136-.257.204-.551.204-.88v-1.386c0-.474-.096-.815-.289-1.024-.192-.217-.518-.325-.976-.325-.265 0-.538.036-.82.108a4.484 4.484 0 0 0-.879.337.525.525 0 0 1-.313.061.404.404 0 0 1-.217-.145.59.59 0 0 1-.084-.253c0-.096.02-.189.06-.277a.42.42 0 0 1 .24-.193 4.351 4.351 0 0 1 1.05-.374c.353-.08.682-.12.987-.12.523 0 .952.084 1.29.253.337.161.59.414.759.759.169.338.253.771.253 1.302v3.181c0 .185-.044.325-.133.422-.088.096-.216.144-.385.144a.522.522 0 0 1-.386-.144c-.088-.097-.132-.237-.132-.422v-.856h.108a1.803 1.803 0 0 1-.361.772 1.807 1.807 0 0 1-.663.506c-.257.112-.55.168-.88.168zm6.462 0c-.362 0-.727-.04-1.097-.12a3.3 3.3 0 0 1-1.024-.446.515.515 0 0 1-.193-.205.568.568 0 0 1-.036-.253.472.472 0 0 1 .108-.229.306.306 0 0 1 .205-.108.402.402 0 0 1 .277.06c.314.177.615.301.904.374.297.072.59.108.88.108.442 0 .775-.08 1-.241a.75.75 0 0 0 .337-.639c0-.225-.076-.397-.229-.518-.144-.128-.373-.225-.687-.289l-1.12-.229c-.498-.112-.876-.297-1.133-.554-.249-.265-.373-.603-.373-1.013 0-.361.096-.674.289-.94.2-.273.478-.482.831-.626.354-.145.76-.217 1.217-.217.354 0 .687.048 1 .145.322.088.611.224.868.409a.363.363 0 0 1 .18.217.39.39 0 0 1 .013.253.39.39 0 0 1-.325.314.518.518 0 0 1-.29-.073 2.278 2.278 0 0 0-.723-.337 2.516 2.516 0 0 0-.723-.109c-.434 0-.763.085-.988.253a.8.8 0 0 0-.325.663c0 .209.064.382.193.518.136.137.35.237.638.302l1.121.229c.522.112.916.293 1.18.542.266.241.399.57.399.988 0 .546-.217.98-.651 1.302-.426.313-1 .469-1.723.469zm5.704 0c-.361 0-.727-.04-1.096-.12a3.3 3.3 0 0 1-1.025-.446.514.514 0 0 1-.192-.205.568.568 0 0 1-.037-.253.472.472 0 0 1 .109-.229.305.305 0 0 1 .205-.108.402.402 0 0 1 .277.06c.313.177.615.301.904.374.297.072.59.108.88.108.441 0 .775-.08 1-.241a.75.75 0 0 0 .337-.639c0-.225-.076-.397-.229-.518-.145-.128-.373-.225-.687-.289l-1.12-.229c-.499-.112-.876-.297-1.133-.554-.25-.265-.374-.603-.374-1.013 0-.361.097-.674.29-.94.2-.273.477-.482.83-.626.354-.145.76-.217 1.218-.217.353 0 .687.048 1 .145.322.088.61.224.868.409a.363.363 0 0 1 .18.217.39.39 0 0 1 .013.253.39.39 0 0 1-.326.314.518.518 0 0 1-.289-.073 2.278 2.278 0 0 0-.723-.337 2.516 2.516 0 0 0-.723-.109c-.434 0-.763.085-.988.253a.801.801 0 0 0-.326.663c0 .209.065.382.193.518.137.137.35.237.639.302l1.12.229c.523.112.917.293 1.182.542.265.241.397.57.397.988 0 .546-.216.98-.65 1.302-.426.313-1 .469-1.724.469zm5.648-.024a.722.722 0 0 1-.398-.108.785.785 0 0 1-.265-.386l-1.796-4.784a.72.72 0 0 1-.048-.397.428.428 0 0 1 .169-.266.583.583 0 0 1 .35-.096c.136 0 .244.032.325.096.08.065.148.181.205.35l1.638 4.627h-.289l1.687-4.651a.683.683 0 0 1 .217-.314.567.567 0 0 1 .35-.108c.144 0 .265.036.361.108a.53.53 0 0 1 .205.314l1.663 4.651h-.277l1.663-4.651c.056-.161.129-.269.217-.326a.54.54 0 0 1 .325-.096c.145 0 .253.036.326.108a.437.437 0 0 1 .12.29.729.729 0 0 1-.048.361l-1.796 4.784a.668.668 0 0 1-.663.494.724.724 0 0 1-.41-.12.785.785 0 0 1-.264-.374l-1.724-4.724h.555l-1.724 4.724a.784.784 0 0 1-.265.374.688.688 0 0 1-.41.12zm10.362.024c-.578 0-1.08-.124-1.506-.373a2.524 2.524 0 0 1-.988-1.061c-.233-.457-.35-.996-.35-1.614 0-.466.065-.884.193-1.254a2.76 2.76 0 0 1 .579-.964c.249-.265.546-.466.892-.602a3.085 3.085 0 0 1 1.18-.217c.579 0 1.081.124 1.507.373.426.25.755.603.988 1.061.233.45.35.984.35 1.603 0 .466-.069.887-.205 1.265a2.615 2.615 0 0 1-.567.964 2.55 2.55 0 0 1-.904.615 3.17 3.17 0 0 1-1.168.204zm0-.867c.354 0 .66-.085.916-.253.266-.169.466-.414.603-.735.144-.322.217-.719.217-1.193 0-.707-.157-1.246-.47-1.615-.314-.37-.735-.554-1.266-.554-.345 0-.65.084-.915.253-.257.16-.458.401-.603.723-.144.321-.217.719-.217 1.193 0 .707.157 1.249.47 1.627.322.369.743.554 1.266.554zm4.695.843c-.185 0-.325-.048-.422-.144-.096-.097-.144-.237-.144-.422v-4.917c0-.184.048-.321.144-.409a.535.535 0 0 1 .398-.145c.169 0 .297.048.386.145.096.088.144.225.144.409v.928h-.12c.128-.482.37-.847.723-1.096.353-.249.799-.39 1.337-.422a.413.413 0 0 1 .314.096c.08.065.124.177.132.338a.52.52 0 0 1-.108.373c-.081.089-.205.141-.374.157l-.217.012c-.53.056-.94.229-1.229.518-.281.289-.422.687-.422 1.193v2.82c0 .185-.048.325-.144.422-.089.096-.221.144-.398.144zm5.874.024c-.515 0-.969-.12-1.362-.361a2.502 2.502 0 0 1-.904-1.06c-.217-.466-.325-1.009-.325-1.627 0-.627.104-1.165.313-1.615.217-.458.518-.807.904-1.049.393-.249.851-.373 1.374-.373.522 0 .972.132 1.349.398.378.257.631.602.759 1.036h-.132v-3.483c0-.184.044-.321.132-.409.097-.097.233-.145.41-.145.177 0 .313.048.41.145.096.088.144.225.144.409v7.544c0 .185-.048.325-.144.422-.097.096-.233.144-.41.144a.54.54 0 0 1-.398-.144c-.096-.097-.144-.237-.144-.422v-1.097l.132.217c-.12.45-.373.808-.759 1.073-.377.265-.827.397-1.349.397zm.253-.867c.353 0 .658-.085.915-.253.266-.169.466-.414.603-.735.145-.322.217-.719.217-1.193 0-.707-.157-1.246-.47-1.615-.313-.37-.735-.554-1.265-.554-.346 0-.651.084-.916.253-.257.16-.458.401-.603.723-.144.321-.217.719-.217 1.193 0 .707.157 1.249.47 1.627.322.369.743.554 1.266.554z" fill="#393333"/><rect x="55.636" y="183.945" width="94.587" height="16.57" rx="8.285" fill="#F3F1FF"/><path d="m63.374 193.789.618-1.124.63 1.124a.543.543 0 0 0 .094.129.46.46 0 0 0 .117.071c.04.016.079.023.118.023a.373.373 0 0 0 .27-.117.387.387 0 0 0 .1-.4.475.475 0 0 0-.052-.124l-.648-1.042 1.336.042a.373.373 0 0 0 .394-.377.373.373 0 0 0-.106-.265c-.066-.074-.163-.111-.288-.111l-1.324.047.665-1.083a.397.397 0 0 0 .041-.106.333.333 0 0 0 .018-.106.401.401 0 0 0-.053-.2.388.388 0 0 0-.324-.2.355.355 0 0 0-.188.059.514.514 0 0 0-.165.176l-.635 1.148-.636-1.165a.378.378 0 0 0-.065-.089.116.116 0 0 0-.029-.029.18.18 0 0 0-.035-.029.087.087 0 0 0-.041-.024.13.13 0 0 0-.042-.018.07.07 0 0 0-.035-.011.128.128 0 0 0-.041-.006.128.128 0 0 0-.041-.006.39.39 0 0 0-.277.118.364.364 0 0 0-.117.276c0 .079.023.155.07.23l.653 1.065-1.306-.047a.403.403 0 0 0-.218.058.334.334 0 0 0-.13.136.4.4 0 0 0-.04.182c0 .102.033.19.1.265a.38.38 0 0 0 .288.112l1.324-.042-.67 1.077a.478.478 0 0 0-.042.077.46.46 0 0 0-.024.135c0 .11.04.204.118.283a.403.403 0 0 0 .277.111c.066 0 .13-.017.188-.053a.438.438 0 0 0 .153-.17zM76.349 193.789l.617-1.124.63 1.124a.543.543 0 0 0 .094.129.46.46 0 0 0 .118.071c.039.016.078.023.117.023a.373.373 0 0 0 .271-.117.387.387 0 0 0 .1-.4.475.475 0 0 0-.053-.124l-.647-1.042 1.336.042a.373.373 0 0 0 .394-.377.373.373 0 0 0-.106-.265c-.067-.074-.163-.111-.288-.111l-1.324.047.665-1.083a.397.397 0 0 0 .04-.106.333.333 0 0 0 .018-.106.401.401 0 0 0-.053-.2.388.388 0 0 0-.323-.2.355.355 0 0 0-.188.059.514.514 0 0 0-.165.176l-.636 1.148-.635-1.165a.378.378 0 0 0-.065-.089.116.116 0 0 0-.03-.029.18.18 0 0 0-.035-.029.087.087 0 0 0-.04-.024.13.13 0 0 0-.042-.018.069.069 0 0 0-.035-.011.128.128 0 0 0-.041-.006.128.128 0 0 0-.042-.006.39.39 0 0 0-.276.118.364.364 0 0 0-.118.276c0 .079.024.155.07.23l.654 1.065-1.306-.047a.403.403 0 0 0-.218.058.334.334 0 0 0-.13.136.4.4 0 0 0-.04.182c0 .102.033.19.1.265a.38.38 0 0 0 .288.112l1.323-.042-.67 1.077a.478.478 0 0 0-.041.077.46.46 0 0 0-.024.135c0 .11.04.204.118.283a.404.404 0 0 0 .276.111c.067 0 .13-.017.188-.053a.436.436 0 0 0 .154-.17zM89.323 193.789l.618-1.124.63 1.124a.543.543 0 0 0 .094.129.46.46 0 0 0 .117.071c.04.016.079.023.118.023a.373.373 0 0 0 .27-.117.387.387 0 0 0 .1-.4.475.475 0 0 0-.052-.124l-.648-1.042 1.336.042a.373.373 0 0 0 .394-.377.373.373 0 0 0-.105-.265c-.067-.074-.163-.111-.289-.111l-1.324.047.665-1.083a.394.394 0 0 0 .041-.106.333.333 0 0 0 .018-.106.401.401 0 0 0-.053-.2.388.388 0 0 0-.323-.2.355.355 0 0 0-.189.059.514.514 0 0 0-.165.176l-.635 1.148-.636-1.165a.378.378 0 0 0-.065-.089.116.116 0 0 0-.029-.029.18.18 0 0 0-.035-.029.087.087 0 0 0-.041-.024.129.129 0 0 0-.041-.018.069.069 0 0 0-.036-.011.128.128 0 0 0-.04-.006.128.128 0 0 0-.042-.006.39.39 0 0 0-.277.118.364.364 0 0 0-.117.276c0 .079.023.155.07.23l.653 1.065-1.306-.047a.403.403 0 0 0-.218.058.334.334 0 0 0-.129.136.4.4 0 0 0-.041.182c0 .102.033.19.1.265a.38.38 0 0 0 .288.112l1.324-.042-.67 1.077a.478.478 0 0 0-.042.077.46.46 0 0 0-.023.135c0 .11.039.204.117.283a.404.404 0 0 0 .277.111c.067 0 .13-.017.188-.053a.436.436 0 0 0 .153-.17zM102.297 193.789l.618-1.124.63 1.124a.537.537 0 0 0 .094.129.458.458 0 0 0 .117.071c.04.016.079.023.118.023a.375.375 0 0 0 .271-.117.39.39 0 0 0 .1-.4.504.504 0 0 0-.053-.124l-.647-1.042 1.335.042c.126 0 .222-.038.289-.112a.376.376 0 0 0 .106-.265.376.376 0 0 0-.106-.265c-.067-.074-.163-.111-.289-.111l-1.324.047.665-1.083a.39.39 0 0 0 .042-.106.394.394 0 0 0-.036-.306.384.384 0 0 0-.323-.2.357.357 0 0 0-.189.059.519.519 0 0 0-.164.176l-.636 1.148-.635-1.165a.389.389 0 0 0-.095-.118.154.154 0 0 0-.035-.029.086.086 0 0 0-.041-.024.138.138 0 0 0-.041-.018.072.072 0 0 0-.036-.011.122.122 0 0 0-.041-.006.127.127 0 0 0-.041-.006.388.388 0 0 0-.276.118.362.362 0 0 0-.118.276c0 .079.023.155.07.23l.654 1.065-1.307-.047a.4.4 0 0 0-.217.058.338.338 0 0 0-.13.136.406.406 0 0 0-.041.182c0 .102.033.19.1.265a.381.381 0 0 0 .288.112l1.324-.042-.671 1.077a.56.56 0 0 0-.041.077.446.446 0 0 0-.023.135.388.388 0 0 0 .582.341.434.434 0 0 0 .153-.17zM115.272 193.789l.618-1.124.629 1.124a.565.565 0 0 0 .094.129.48.48 0 0 0 .118.071.31.31 0 0 0 .118.023.37.37 0 0 0 .27-.117.385.385 0 0 0 .1-.4.466.466 0 0 0-.052-.124l-.648-1.042 1.336.042c.125 0 .222-.038.288-.112a.372.372 0 0 0 .106-.265.372.372 0 0 0-.394-.376l-1.324.047.665-1.083a.386.386 0 0 0 .041-.106.328.328 0 0 0 .018-.106.404.404 0 0 0-.194-.347.334.334 0 0 0-.371.006.512.512 0 0 0-.165.176l-.635 1.148-.636-1.165a.392.392 0 0 0-.065-.089.1.1 0 0 0-.029-.029.18.18 0 0 0-.035-.029.09.09 0 0 0-.041-.024.133.133 0 0 0-.042-.018.066.066 0 0 0-.035-.011.127.127 0 0 0-.041-.006.13.13 0 0 0-.041-.006.392.392 0 0 0-.277.118.366.366 0 0 0-.118.276c0 .079.024.155.071.23l.653 1.065-1.306-.047a.406.406 0 0 0-.218.058.33.33 0 0 0-.129.136.393.393 0 0 0-.041.182c0 .102.033.19.1.265.07.074.166.112.288.112l1.324-.042-.671 1.077a.47.47 0 0 0-.041.077.45.45 0 0 0-.024.135.39.39 0 0 0 .583.341.434.434 0 0 0 .153-.17zM128.246 193.789l.618-1.124.629 1.124a.54.54 0 0 0 .095.129.458.458 0 0 0 .117.071.31.31 0 0 0 .118.023.375.375 0 0 0 .271-.117.388.388 0 0 0 .117-.283.504.504 0 0 0-.07-.241l-.648-1.042 1.336.042c.126 0 .222-.038.288-.112a.372.372 0 0 0 .106-.265.372.372 0 0 0-.394-.376l-1.324.047.665-1.083a.386.386 0 0 0 .041-.106.328.328 0 0 0 .018-.106.404.404 0 0 0-.194-.347.334.334 0 0 0-.371.006.512.512 0 0 0-.165.176l-.635 1.148-.636-1.165a.555.555 0 0 0-.129-.147.09.09 0 0 0-.041-.024.133.133 0 0 0-.042-.018.066.066 0 0 0-.035-.011.127.127 0 0 0-.041-.006.13.13 0 0 0-.041-.006.392.392 0 0 0-.277.118.365.365 0 0 0-.117.276c0 .079.023.155.07.23l.653 1.065-1.306-.047a.406.406 0 0 0-.218.058.33.33 0 0 0-.129.136.393.393 0 0 0-.041.182c0 .102.033.19.1.265.07.074.166.112.288.112l1.324-.042-.671 1.077a.47.47 0 0 0-.041.077.45.45 0 0 0-.024.135.39.39 0 0 0 .583.341.434.434 0 0 0 .153-.17zM141.221 193.789l.617-1.124.63 1.124a.537.537 0 0 0 .094.129.463.463 0 0 0 .118.071.306.306 0 0 0 .118.023.37.37 0 0 0 .27-.117.385.385 0 0 0 .1-.4.469.469 0 0 0-.053-.124l-.647-1.042 1.336.042a.372.372 0 0 0 .394-.377.372.372 0 0 0-.394-.376l-1.324.047.665-1.083a.421.421 0 0 0 .041-.106.328.328 0 0 0 .018-.106.404.404 0 0 0-.195-.347.331.331 0 0 0-.37.006.512.512 0 0 0-.165.176l-.636 1.148-.635-1.165a.33.33 0 0 0-.065-.089.114.114 0 0 0-.029-.029.183.183 0 0 0-.036-.029.082.082 0 0 0-.041-.024.119.119 0 0 0-.041-.018.068.068 0 0 0-.035-.011.13.13 0 0 0-.041-.006.133.133 0 0 0-.042-.006.388.388 0 0 0-.276.118.362.362 0 0 0-.118.276c0 .079.024.155.071.23l.653 1.065-1.306-.047a.404.404 0 0 0-.218.058.338.338 0 0 0-.13.136.406.406 0 0 0-.041.182c0 .102.034.19.1.265a.382.382 0 0 0 .289.112l1.324-.042-.671 1.077a.404.404 0 0 0-.041.077.45.45 0 0 0-.024.135c0 .11.039.204.118.283a.402.402 0 0 0 .276.111c.067 0 .13-.017.189-.053a.45.45 0 0 0 .153-.17z" fill="#FF007A"/><path d="M60.896 219.154c-.844 0-1.567-.176-2.17-.53a3.568 3.568 0 0 1-1.397-1.506c-.322-.659-.482-1.434-.482-2.326 0-.667.092-1.265.277-1.796.184-.538.45-.996.795-1.373a3.357 3.357 0 0 1 1.265-.88c.507-.201 1.077-.301 1.712-.301.482 0 .944.068 1.385.205.45.136.836.329 1.157.578a.632.632 0 0 1 .253.301c.04.113.044.221.012.326a.503.503 0 0 1-.156.253.454.454 0 0 1-.277.108.65.65 0 0 1-.362-.132 2.728 2.728 0 0 0-.928-.47 3.472 3.472 0 0 0-1.06-.157c-.619 0-1.145.133-1.579.398-.426.257-.751.634-.976 1.132-.217.49-.325 1.093-.325 1.808 0 .707.108 1.314.325 1.82.225.498.55.879.976 1.144.434.258.96.386 1.579.386a3.59 3.59 0 0 0 1.072-.157c.346-.104.663-.265.952-.482.129-.088.245-.128.35-.12a.454.454 0 0 1 .277.108c.072.057.12.137.144.241a.484.484 0 0 1 0 .302.545.545 0 0 1-.217.277c-.329.281-.722.494-1.18.638-.45.137-.924.205-1.422.205zm6.201 0c-.578 0-1.08-.124-1.506-.373a2.524 2.524 0 0 1-.988-1.061c-.233-.458-.35-.996-.35-1.614 0-.466.065-.884.193-1.254.137-.377.33-.699.579-.964a2.43 2.43 0 0 1 .891-.602 3.084 3.084 0 0 1 1.181-.217c.579 0 1.081.124 1.507.373.425.249.755.603.988 1.061.233.45.35.984.35 1.603 0 .466-.069.887-.205 1.265a2.621 2.621 0 0 1-.567.964c-.249.265-.55.47-.904.614a3.149 3.149 0 0 1-1.169.205zm0-.867c.354 0 .66-.085.916-.253.265-.169.466-.414.603-.735.144-.322.217-.719.217-1.193 0-.707-.157-1.246-.47-1.615-.314-.37-.735-.555-1.266-.555-.345 0-.65.085-.915.253a1.594 1.594 0 0 0-.603.724c-.145.321-.217.719-.217 1.193 0 .707.157 1.249.47 1.626.322.37.743.555 1.265.555zm4.67.843a.539.539 0 0 1-.397-.144c-.096-.097-.144-.237-.144-.422v-4.917c0-.185.048-.321.144-.41a.539.539 0 0 1 .398-.144c.169 0 .297.048.385.144.097.089.145.225.145.41v.988l-.132-.18c.168-.458.441-.804.819-1.037a2.49 2.49 0 0 1 1.314-.349c.473 0 .863.084 1.168.253.306.169.535.426.687.771.153.346.23.783.23 1.314v3.157c0 .185-.049.325-.145.422-.089.096-.221.144-.398.144-.177 0-.313-.048-.41-.144-.096-.097-.144-.237-.144-.422v-3.097c0-.522-.1-.904-.302-1.145-.2-.241-.522-.361-.964-.361-.514 0-.927.16-1.24.482-.306.313-.459.739-.459 1.277v2.844c0 .377-.185.566-.554.566zm7.126 0c-.177 0-.313-.048-.41-.144-.096-.097-.144-.237-.144-.422v-4.543h-.723a.484.484 0 0 1-.338-.109.422.422 0 0 1-.12-.313c0-.137.04-.241.12-.313a.484.484 0 0 1 .338-.109h1.024l-.301.289v-.445c0-.772.184-1.358.554-1.76.378-.401.936-.638 1.675-.711l.35-.024c.136-.016.244.004.325.06.08.049.132.113.157.193a.389.389 0 0 1 .012.253.464.464 0 0 1-.109.229.276.276 0 0 1-.217.097l-.337.024c-.458.032-.791.172-1 .421-.21.25-.314.607-.314 1.073v.482l-.156-.181h3.29c.176 0 .309.052.397.157.097.096.145.241.145.434v4.748c0 .184-.044.329-.133.433-.088.105-.225.157-.41.157-.176 0-.313-.052-.41-.157-.096-.104-.144-.249-.144-.433v-4.495h-2.579v4.543c0 .377-.18.566-.542.566zm3.688-7.314c-.21 0-.374-.057-.495-.169a.636.636 0 0 1-.18-.47c0-.209.06-.366.18-.47.12-.113.286-.169.495-.169.224 0 .393.056.506.169.12.104.18.261.18.47 0 .193-.06.349-.18.47-.113.112-.282.169-.507.169zm2.739 7.314c-.185 0-.326-.048-.422-.144-.096-.097-.145-.237-.145-.422v-4.917c0-.185.049-.321.145-.41a.539.539 0 0 1 .398-.144c.168 0 .297.048.385.144.097.089.145.225.145.41v.928h-.12c.128-.482.369-.847.722-1.096.354-.25.8-.39 1.338-.422a.411.411 0 0 1 .313.096c.08.064.125.177.133.338a.518.518 0 0 1-.109.373c-.08.088-.204.141-.373.157l-.217.012c-.53.056-.94.229-1.23.518-.28.289-.421.687-.421 1.193v2.82c0 .185-.048.325-.145.422-.088.096-.22.144-.397.144zm4.28 0a.539.539 0 0 1-.397-.144c-.097-.097-.145-.237-.145-.422v-4.917c0-.185.048-.321.145-.41a.539.539 0 0 1 .398-.144c.168 0 .297.048.385.144.097.089.145.225.145.41v1.025l-.133-.217c.153-.442.398-.784.735-1.025.346-.241.755-.361 1.23-.361.498 0 .9.12 1.205.361.305.233.51.591.614 1.073h-.169c.145-.442.402-.792.772-1.049a2.278 2.278 0 0 1 1.313-.385c.442 0 .804.088 1.085.265.289.169.506.426.65.771.145.338.217.771.217 1.302v3.157c0 .185-.048.325-.144.422a.539.539 0 0 1-.398.144c-.177 0-.313-.048-.41-.144-.096-.097-.144-.237-.144-.422v-3.109c0-.514-.089-.892-.265-1.133-.177-.241-.474-.361-.892-.361-.458 0-.824.16-1.097.482-.265.313-.397.747-.397 1.301v2.82c0 .185-.049.325-.145.422-.088.096-.22.144-.398.144-.176 0-.313-.048-.41-.144-.096-.097-.144-.237-.144-.422v-3.109c0-.514-.088-.892-.265-1.133-.177-.241-.474-.361-.892-.361-.458 0-.823.16-1.096.482-.266.313-.398.747-.398 1.301v2.82c0 .377-.185.566-.554.566zm13.414 0c-.177 0-.314-.048-.41-.144-.096-.105-.145-.249-.145-.434v-7.435c0-.185.049-.326.145-.422a.594.594 0 0 1 .422-.145h2.868c.916 0 1.619.225 2.109.675.498.45.747 1.081.747 1.892 0 .819-.249 1.454-.747 1.904-.49.45-1.193.675-2.109.675h-2.314v2.856c0 .185-.048.329-.144.434-.089.096-.229.144-.422.144zm.566-4.338h2.169c.627 0 1.097-.141 1.41-.422.322-.289.482-.707.482-1.253 0-.546-.16-.956-.482-1.229-.313-.281-.783-.422-1.41-.422h-2.169v3.326zm7.861 4.362c-.402 0-.767-.08-1.097-.241a1.942 1.942 0 0 1-.759-.65 1.651 1.651 0 0 1-.265-.916c0-.434.108-.775.325-1.025.217-.249.583-.425 1.097-.53.514-.112 1.205-.168 2.073-.168h.566v.698h-.542c-.619 0-1.109.029-1.47.085-.354.056-.603.156-.748.301-.144.137-.217.329-.217.579 0 .313.109.57.326.771.225.201.53.301.916.301.305 0 .574-.072.807-.217.233-.153.418-.353.554-.602.137-.258.205-.551.205-.88v-1.386c0-.474-.096-.815-.289-1.024-.193-.217-.518-.326-.976-.326-.265 0-.538.037-.819.109a4.457 4.457 0 0 0-.88.337.533.533 0 0 1-.313.061.406.406 0 0 1-.217-.145.581.581 0 0 1-.085-.253.66.66 0 0 1 .06-.277.422.422 0 0 1 .242-.193 4.332 4.332 0 0 1 1.048-.374c.353-.08.683-.12.988-.12.522 0 .952.084 1.289.253.338.161.591.414.76.759.168.337.253.771.253 1.302v3.181c0 .185-.044.325-.133.422-.088.096-.217.144-.385.144a.522.522 0 0 1-.386-.144c-.088-.097-.133-.237-.133-.422v-.856h.109a1.798 1.798 0 0 1-.362.772 1.81 1.81 0 0 1-.662.506 2.189 2.189 0 0 1-.88.168zm6.461 0c-.361 0-.727-.04-1.096-.12a3.314 3.314 0 0 1-1.024-.446.516.516 0 0 1-.193-.205.572.572 0 0 1-.036-.253.469.469 0 0 1 .108-.229.306.306 0 0 1 .205-.108.401.401 0 0 1 .277.06c.313.177.615.301.904.373.297.073.59.109.88.109.441 0 .775-.08 1-.241a.75.75 0 0 0 .337-.639c0-.225-.076-.397-.229-.518-.144-.129-.373-.225-.687-.289l-1.12-.229c-.499-.113-.876-.297-1.133-.554-.249-.266-.374-.603-.374-1.013 0-.361.097-.675.289-.94.201-.273.478-.482.832-.626a3.184 3.184 0 0 1 1.217-.217c.354 0 .687.048 1 .144.322.089.611.225.868.41a.364.364 0 0 1 .181.217.39.39 0 0 1 .012.253.387.387 0 0 1-.326.313.518.518 0 0 1-.289-.072 2.257 2.257 0 0 0-.723-.337 2.482 2.482 0 0 0-.723-.109c-.434 0-.763.085-.988.253a.8.8 0 0 0-.325.663c0 .209.064.382.192.518.137.137.35.237.639.302l1.121.228c.522.113.916.294 1.181.543.265.241.397.57.397.988 0 .546-.217.98-.65 1.301-.426.314-1.001.47-1.724.47zm5.705 0c-.361 0-.727-.04-1.096-.12a3.33 3.33 0 0 1-1.025-.446.53.53 0 0 1-.193-.205.572.572 0 0 1-.036-.253.47.47 0 0 1 .109-.229.304.304 0 0 1 .205-.108.402.402 0 0 1 .277.06c.313.177.614.301.904.373.297.073.59.109.879.109.442 0 .776-.08 1-.241a.75.75 0 0 0 .338-.639c0-.225-.076-.397-.229-.518-.145-.129-.374-.225-.687-.289l-1.121-.229c-.498-.113-.875-.297-1.132-.554-.249-.266-.374-.603-.374-1.013 0-.361.096-.675.289-.94.201-.273.478-.482.832-.626a3.184 3.184 0 0 1 1.217-.217c.353 0 .687.048 1 .144.321.089.611.225.868.41a.363.363 0 0 1 .18.217c.033.08.037.165.012.253a.393.393 0 0 1-.108.205.4.4 0 0 1-.217.108.516.516 0 0 1-.289-.072 2.257 2.257 0 0 0-.723-.337 2.482 2.482 0 0 0-.723-.109c-.434 0-.763.085-.988.253a.801.801 0 0 0-.326.663c0 .209.065.382.193.518.137.137.35.237.639.302l1.121.228c.522.113.915.294 1.18.543.266.241.398.57.398.988 0 .546-.217.98-.651 1.301-.425.314-1 .47-1.723.47zm5.647-.024a.72.72 0 0 1-.397-.108.784.784 0 0 1-.265-.386l-1.796-4.784a.726.726 0 0 1-.048-.398c.024-.112.08-.2.169-.265a.582.582 0 0 1 .349-.096c.137 0 .245.032.325.096.081.065.149.181.205.35l1.639 4.627h-.289l1.687-4.651a.684.684 0 0 1 .217-.314.566.566 0 0 1 .349-.108c.145 0 .266.036.362.108a.532.532 0 0 1 .205.314l1.663 4.651h-.277l1.663-4.651c.056-.161.128-.269.217-.326a.537.537 0 0 1 .325-.096c.145 0 .253.036.325.108a.433.433 0 0 1 .121.29.73.73 0 0 1-.048.361l-1.796 4.784a.667.667 0 0 1-.663.494.722.722 0 0 1-.409-.12.792.792 0 0 1-.266-.374l-1.723-4.724h.555l-1.724 4.724a.784.784 0 0 1-.265.374.688.688 0 0 1-.41.12zm10.363.024c-.578 0-1.08-.124-1.506-.373a2.523 2.523 0 0 1-.988-1.061c-.233-.458-.35-.996-.35-1.614 0-.466.065-.884.193-1.254a2.77 2.77 0 0 1 .579-.964 2.43 2.43 0 0 1 .891-.602 3.086 3.086 0 0 1 1.181-.217c.579 0 1.081.124 1.507.373.425.249.755.603.988 1.061.233.45.349.984.349 1.603 0 .466-.068.887-.205 1.265a2.615 2.615 0 0 1-.566.964c-.249.265-.55.47-.904.614a3.147 3.147 0 0 1-1.169.205zm0-.867c.354 0 .659-.085.916-.253.265-.169.466-.414.603-.735.144-.322.217-.719.217-1.193 0-.707-.157-1.246-.47-1.615-.314-.37-.735-.555-1.266-.555-.345 0-.65.085-.916.253-.257.161-.457.402-.602.724-.145.321-.217.719-.217 1.193 0 .707.157 1.249.47 1.626.321.37.743.555 1.265.555zm4.695.843c-.185 0-.326-.048-.422-.144-.096-.097-.145-.237-.145-.422v-4.917c0-.185.049-.321.145-.41a.538.538 0 0 1 .398-.144c.168 0 .297.048.385.144.097.089.145.225.145.41v.928h-.121c.129-.482.37-.847.724-1.096.353-.25.799-.39 1.337-.422a.41.41 0 0 1 .313.096c.081.064.125.177.133.338a.52.52 0 0 1-.108.373c-.081.088-.205.141-.374.157l-.217.012c-.53.056-.94.229-1.229.518-.281.289-.422.687-.422 1.193v2.82c0 .185-.048.325-.144.422-.089.096-.221.144-.398.144zm5.873.024c-.514 0-.968-.12-1.361-.361a2.5 2.5 0 0 1-.904-1.061c-.217-.466-.326-1.008-.326-1.626 0-.627.105-1.165.314-1.615.217-.458.518-.808.904-1.049.393-.249.851-.373 1.373-.373.523 0 .972.132 1.35.397.378.258.631.603.759 1.037h-.132v-3.483c0-.185.044-.321.132-.41.097-.096.233-.144.41-.144.177 0 .313.048.41.144.096.089.144.225.144.41v7.544c0 .185-.048.325-.144.422-.097.096-.233.144-.41.144a.54.54 0 0 1-.398-.144c-.096-.097-.144-.237-.144-.422v-1.097l.132.217c-.12.45-.373.808-.759 1.073-.378.265-.827.397-1.35.397zm.253-.867c.354 0 .659-.085.916-.253.265-.169.466-.414.603-.735.144-.322.217-.719.217-1.193 0-.707-.157-1.246-.47-1.615-.314-.37-.735-.555-1.266-.555-.345 0-.65.085-.915.253-.258.161-.458.402-.603.724-.145.321-.217.719-.217 1.193 0 .707.157 1.249.47 1.626.321.37.743.555 1.265.555z" fill="#393333"/><rect x="55.636" y="234.096" width="94.587" height="16.57" rx="8.285" fill="#F3F1FF"/><path d="m63.374 243.941.618-1.124.63 1.124a.543.543 0 0 0 .094.129.49.49 0 0 0 .117.071c.04.015.079.023.118.023a.373.373 0 0 0 .27-.117.387.387 0 0 0 .118-.283.483.483 0 0 0-.07-.241l-.648-1.042 1.336.042a.373.373 0 0 0 .394-.377.373.373 0 0 0-.394-.377l-1.324.047.665-1.082a.41.41 0 0 0 .041-.106.333.333 0 0 0 .018-.106.401.401 0 0 0-.053-.2.388.388 0 0 0-.324-.2.346.346 0 0 0-.188.059.514.514 0 0 0-.165.176l-.635 1.148-.636-1.165a.31.31 0 0 0-.065-.089.116.116 0 0 0-.029-.029.235.235 0 0 0-.035-.03.094.094 0 0 0-.041-.023.13.13 0 0 0-.042-.018.062.062 0 0 0-.035-.012.166.166 0 0 0-.041-.005.128.128 0 0 0-.041-.006.393.393 0 0 0-.277.117.367.367 0 0 0-.117.277c0 .078.023.155.07.229l.653 1.065-1.306-.047a.404.404 0 0 0-.218.059.334.334 0 0 0-.13.136.397.397 0 0 0-.04.182c0 .102.033.19.1.265a.38.38 0 0 0 .288.112l1.324-.042-.67 1.077a.478.478 0 0 0-.042.077.46.46 0 0 0-.024.135c0 .11.04.204.118.282a.4.4 0 0 0 .277.112c.066 0 .13-.017.188-.053a.438.438 0 0 0 .153-.17zM76.349 243.941l.617-1.124.63 1.124a.543.543 0 0 0 .094.129.49.49 0 0 0 .118.071c.039.015.078.023.117.023a.373.373 0 0 0 .271-.117.387.387 0 0 0 .118-.283.483.483 0 0 0-.07-.241l-.648-1.042 1.336.042a.373.373 0 0 0 .394-.377.373.373 0 0 0-.394-.377l-1.324.047.665-1.082a.41.41 0 0 0 .04-.106.333.333 0 0 0 .018-.106.401.401 0 0 0-.053-.2.388.388 0 0 0-.323-.2.346.346 0 0 0-.188.059.514.514 0 0 0-.165.176l-.636 1.148-.635-1.165a.319.319 0 0 0-.065-.089.116.116 0 0 0-.03-.029.235.235 0 0 0-.035-.03.094.094 0 0 0-.04-.023.13.13 0 0 0-.042-.018.062.062 0 0 0-.035-.012.166.166 0 0 0-.041-.005.128.128 0 0 0-.042-.006.393.393 0 0 0-.276.117.367.367 0 0 0-.118.277c0 .078.024.155.07.229l.654 1.065-1.306-.047a.404.404 0 0 0-.218.059.334.334 0 0 0-.13.136.397.397 0 0 0-.04.182c0 .102.033.19.1.265a.38.38 0 0 0 .288.112l1.323-.042-.67 1.077a.478.478 0 0 0-.041.077.46.46 0 0 0-.024.135c0 .11.04.204.118.282a.4.4 0 0 0 .276.112c.067 0 .13-.017.188-.053a.436.436 0 0 0 .154-.17zM89.323 243.941l.618-1.124.63 1.124a.543.543 0 0 0 .094.129.49.49 0 0 0 .117.071c.04.015.079.023.118.023a.373.373 0 0 0 .27-.117.387.387 0 0 0 .118-.283.483.483 0 0 0-.07-.241l-.648-1.042 1.336.042a.373.373 0 0 0 .394-.377.373.373 0 0 0-.394-.377l-1.324.047.665-1.082a.407.407 0 0 0 .041-.106.333.333 0 0 0 .018-.106.401.401 0 0 0-.053-.2.388.388 0 0 0-.323-.2.346.346 0 0 0-.189.059.514.514 0 0 0-.165.176l-.635 1.148-.636-1.165a.319.319 0 0 0-.064-.089.116.116 0 0 0-.03-.029.235.235 0 0 0-.035-.03.094.094 0 0 0-.041-.023.129.129 0 0 0-.041-.018.062.062 0 0 0-.036-.012.166.166 0 0 0-.04-.005.128.128 0 0 0-.042-.006.393.393 0 0 0-.277.117.367.367 0 0 0-.117.277c0 .078.023.155.07.229l.653 1.065-1.306-.047a.404.404 0 0 0-.218.059.334.334 0 0 0-.129.136.397.397 0 0 0-.041.182c0 .102.033.19.1.265a.38.38 0 0 0 .288.112l1.324-.042-.67 1.077a.478.478 0 0 0-.042.077.46.46 0 0 0-.023.135c0 .11.039.204.117.282a.4.4 0 0 0 .277.112c.067 0 .13-.017.188-.053a.436.436 0 0 0 .153-.17zM102.297 243.941l.618-1.124.63 1.124a.537.537 0 0 0 .094.129.488.488 0 0 0 .117.071c.04.015.079.023.118.023a.375.375 0 0 0 .271-.117.39.39 0 0 0 .1-.401.514.514 0 0 0-.053-.123l-.647-1.042 1.335.042c.126 0 .222-.038.289-.112a.376.376 0 0 0 .106-.265.376.376 0 0 0-.106-.265c-.067-.074-.163-.112-.289-.112l-1.324.047.665-1.082a.403.403 0 0 0 .042-.106.394.394 0 0 0-.036-.306.384.384 0 0 0-.323-.2.349.349 0 0 0-.189.059.519.519 0 0 0-.164.176l-.636 1.148-.635-1.165a.315.315 0 0 0-.03-.048c-.012-.015-.023-.029-.035-.041a.118.118 0 0 0-.03-.029.193.193 0 0 0-.035-.03.093.093 0 0 0-.041-.023.138.138 0 0 0-.041-.018.065.065 0 0 0-.036-.012.158.158 0 0 0-.041-.005.127.127 0 0 0-.041-.006.39.39 0 0 0-.276.117.366.366 0 0 0-.118.277c0 .078.023.155.07.229l.654 1.065-1.307-.047a.4.4 0 0 0-.217.059.338.338 0 0 0-.13.136.403.403 0 0 0-.041.182c0 .102.033.19.1.265a.381.381 0 0 0 .288.112l1.324-.042-.671 1.077a.56.56 0 0 0-.041.077.446.446 0 0 0-.023.135c0 .11.039.204.117.282a.402.402 0 0 0 .277.112.352.352 0 0 0 .188-.053.434.434 0 0 0 .153-.17zM115.272 243.941l.618-1.124.629 1.124a.565.565 0 0 0 .094.129c.04.031.079.055.118.071a.33.33 0 0 0 .118.023.37.37 0 0 0 .27-.117.385.385 0 0 0 .118-.283.474.474 0 0 0-.07-.241l-.648-1.042 1.336.042c.125 0 .222-.038.288-.112a.372.372 0 0 0 .106-.265.372.372 0 0 0-.106-.265c-.066-.074-.163-.112-.288-.112l-1.324.047.665-1.082a.4.4 0 0 0 .041-.106.328.328 0 0 0 .018-.106.404.404 0 0 0-.194-.347.326.326 0 0 0-.183-.053.346.346 0 0 0-.188.059.512.512 0 0 0-.165.176l-.635 1.148-.636-1.165a.307.307 0 0 0-.065-.089.1.1 0 0 0-.029-.029.233.233 0 0 0-.035-.03.099.099 0 0 0-.041-.023.133.133 0 0 0-.042-.018.06.06 0 0 0-.035-.012.164.164 0 0 0-.041-.005.13.13 0 0 0-.041-.006.395.395 0 0 0-.277.117.37.37 0 0 0-.118.277c0 .078.024.155.071.229l.653 1.065-1.306-.047a.407.407 0 0 0-.218.059.33.33 0 0 0-.129.136.39.39 0 0 0-.041.182c0 .102.033.19.1.265.07.074.166.112.288.112l1.324-.042-.671 1.077a.47.47 0 0 0-.041.077.45.45 0 0 0-.024.135c0 .11.04.204.118.282a.4.4 0 0 0 .277.112.355.355 0 0 0 .188-.053.434.434 0 0 0 .153-.17zM128.246 243.941l.618-1.124.629 1.124a.54.54 0 0 0 .095.129.488.488 0 0 0 .117.071.33.33 0 0 0 .118.023.375.375 0 0 0 .271-.117.388.388 0 0 0 .117-.283.514.514 0 0 0-.07-.241l-.648-1.042 1.336.042c.126 0 .222-.038.288-.112a.372.372 0 0 0 .106-.265.372.372 0 0 0-.106-.265c-.066-.074-.162-.112-.288-.112l-1.324.047.665-1.082a.4.4 0 0 0 .041-.106.328.328 0 0 0 .018-.106.404.404 0 0 0-.194-.347.326.326 0 0 0-.183-.053.348.348 0 0 0-.188.059.512.512 0 0 0-.165.176l-.635 1.148-.636-1.165a.307.307 0 0 0-.064-.089.118.118 0 0 0-.03-.029.233.233 0 0 0-.035-.03.099.099 0 0 0-.041-.023.133.133 0 0 0-.042-.018.06.06 0 0 0-.035-.012.164.164 0 0 0-.041-.005.13.13 0 0 0-.041-.006.395.395 0 0 0-.277.117.369.369 0 0 0-.117.277c0 .078.023.155.07.229l.653 1.065-1.306-.047a.407.407 0 0 0-.218.059.33.33 0 0 0-.129.136.39.39 0 0 0-.041.182c0 .102.033.19.1.265.07.074.166.112.288.112l1.324-.042-.671 1.077a.47.47 0 0 0-.041.077.45.45 0 0 0-.024.135c0 .11.04.204.118.282a.402.402 0 0 0 .277.112.355.355 0 0 0 .188-.053.434.434 0 0 0 .153-.17zM141.221 243.941l.617-1.124.63 1.124a.537.537 0 0 0 .094.129.493.493 0 0 0 .118.071.326.326 0 0 0 .118.023.37.37 0 0 0 .27-.117.385.385 0 0 0 .118-.283.477.477 0 0 0-.071-.241l-.647-1.042 1.336.042a.372.372 0 0 0 .394-.377.372.372 0 0 0-.394-.377l-1.324.047.665-1.082a.436.436 0 0 0 .041-.106.328.328 0 0 0 .018-.106.404.404 0 0 0-.195-.347.323.323 0 0 0-.182-.053.343.343 0 0 0-.188.059.512.512 0 0 0-.165.176l-.636 1.148-.635-1.165a.409.409 0 0 0-.029-.048.501.501 0 0 0-.065-.07.238.238 0 0 0-.036-.03.088.088 0 0 0-.041-.023.119.119 0 0 0-.041-.018.062.062 0 0 0-.035-.012.17.17 0 0 0-.041-.005.133.133 0 0 0-.042-.006.39.39 0 0 0-.276.117.366.366 0 0 0-.118.277c0 .078.024.155.071.229l.653 1.065-1.306-.047a.404.404 0 0 0-.218.059.338.338 0 0 0-.13.136.403.403 0 0 0-.041.182c0 .102.034.19.1.265a.382.382 0 0 0 .289.112l1.324-.042-.671 1.077a.404.404 0 0 0-.041.077.45.45 0 0 0-.024.135c0 .11.039.204.118.282a.398.398 0 0 0 .276.112c.067 0 .13-.017.189-.053a.45.45 0 0 0 .153-.17z" fill="#FF007A"/><g filter="url(#b)"><rect x="66.548" y="262.717" width="77.177" height="24.101" rx="12.051" fill="#FF007A"/><path d="M89.263 278.267c-.2 0-.357-.056-.47-.168-.112-.113-.169-.27-.169-.47v-7.267c0-.209.053-.365.157-.47.112-.112.27-.169.47-.169.2 0 .353.057.458.169.112.105.169.261.169.47v6.833h3.735c.177 0 .314.048.41.144.097.089.145.217.145.386a.539.539 0 0 1-.145.398c-.096.096-.233.144-.41.144h-4.35zm8.494.109c-.594 0-1.108-.125-1.542-.374a2.6 2.6 0 0 1-1-1.06c-.241-.458-.362-.996-.362-1.615 0-.474.068-.896.205-1.265.136-.37.33-.687.578-.952.257-.273.563-.478.916-.615a3.21 3.21 0 0 1 1.205-.217c.587 0 1.093.125 1.519.374.434.249.771.602 1.012 1.06.241.45.361.988.361 1.615 0 .466-.068.888-.204 1.265a2.671 2.671 0 0 1-.59.964 2.53 2.53 0 0 1-.917.615 3.244 3.244 0 0 1-1.18.205zm0-.94c.33 0 .619-.08.868-.241a1.56 1.56 0 0 0 .578-.711c.145-.313.217-.699.217-1.157 0-.691-.152-1.213-.458-1.567-.305-.353-.707-.53-1.205-.53-.337 0-.63.081-.88.241-.248.153-.445.386-.59.699-.137.313-.205.699-.205 1.157 0 .683.153 1.205.458 1.567.305.361.711.542 1.217.542zm7.043 3.109c-.434 0-.856-.044-1.265-.133a3.563 3.563 0 0 1-1.097-.433.505.505 0 0 1-.241-.241.474.474 0 0 1-.036-.278.597.597 0 0 1 .132-.253.471.471 0 0 1 .229-.144.415.415 0 0 1 .302.048c.353.193.687.321 1 .385.321.073.619.109.892.109.562 0 .984-.145 1.265-.434.281-.281.422-.699.422-1.253v-1.229h.108c-.12.442-.373.791-.759 1.048a2.356 2.356 0 0 1-1.338.386c-.53 0-.992-.121-1.385-.362a2.513 2.513 0 0 1-.916-1.024c-.217-.442-.326-.956-.326-1.543 0-.441.061-.839.181-1.193.129-.353.305-.658.53-.915a2.34 2.34 0 0 1 .832-.591 2.66 2.66 0 0 1 1.084-.217c.515 0 .96.129 1.338.386.386.257.635.606.747 1.048l-.12.205v-1c0-.201.052-.354.156-.458a.628.628 0 0 1 .446-.157c.193 0 .342.052.446.157.104.104.157.257.157.458v4.856c0 .916-.237 1.607-.711 2.073-.474.466-1.165.699-2.073.699zm-.096-3.374c.353 0 .654-.081.903-.241.249-.161.442-.39.579-.687a2.5 2.5 0 0 0 .205-1.049c0-.602-.153-1.08-.458-1.434-.297-.353-.707-.53-1.229-.53-.346 0-.643.081-.892.241-.249.161-.446.39-.591.687-.136.289-.204.635-.204 1.036 0 .611.152 1.093.457 1.446.306.354.715.531 1.23.531zm8.765 1.181c-.2 0-.357-.057-.469-.169-.105-.112-.157-.269-.157-.47v-7.387c0-.209.052-.366.157-.47.112-.112.269-.169.469-.169.201 0 .354.057.458.169.113.104.169.261.169.47v7.387c0 .201-.052.358-.157.47-.104.112-.261.169-.47.169zm3.189 0c-.193 0-.342-.053-.446-.157-.104-.112-.157-.265-.157-.458v-4.82c0-.201.053-.354.157-.458.104-.105.249-.157.434-.157.193 0 .337.052.434.157.104.104.156.257.156.458v.94l-.132-.217c.176-.45.454-.787.831-1.012a2.43 2.43 0 0 1 1.302-.35c.466 0 .851.089 1.157.265.313.169.546.43.698.784.153.345.229.783.229 1.313v3.097c0 .193-.052.346-.156.458-.105.104-.253.157-.446.157-.201 0-.354-.053-.458-.157-.104-.112-.157-.265-.157-.458v-3.025c0-.506-.1-.875-.301-1.108-.193-.233-.498-.35-.916-.35-.49 0-.884.153-1.181.458-.289.305-.434.715-.434 1.229v2.796c0 .41-.204.615-.614.615z" fill="#fff"/></g></g><defs><filter id="a" x=".823" y="103.666" width="208.626" height="238.511" filterUnits="userSpaceOnUse" color-interpolation-filters="sRGB"><feFlood flood-opacity="0" result="BackgroundImageFix"/><feColorMatrix in="SourceAlpha" values="0 0 0 0 0 0 0 0 0 0 0 0 0 0 0 0 0 0 127 0" result="hardAlpha"/><feOffset/><feGaussianBlur stdDeviation="21.089"/><feComposite in2="hardAlpha" operator="out"/><feColorMatrix values="0 0 0 0 0 0 0 0 0 0 0 0 0 0 0 0 0 0 0.1 0"/><feBlend in2="BackgroundImageFix" result="effect1_dropShadow_2_87"/><feBlend in="SourceGraphic" in2="effect1_dropShadow_2_87" result="shape"/></filter><filter id="b" x="65.041" y="261.964" width="80.19" height="27.114" filterUnits="userSpaceOnUse" color-interpolation-filters="sRGB"><feFlood flood-opacity="0" result="BackgroundImageFix"/><feColorMatrix in="SourceAlpha" values="0 0 0 0 0 0 0 0 0 0 0 0 0 0 0 0 0 0 127 0" result="hardAlpha"/><feOffset dy=".753"/><feGaussianBlur stdDeviation=".753"/><feColorMatrix values="0 0 0 0 0.0627451 0 0 0 0 0.0941176 0 0 0 0 0.156863 0 0 0 0.05 0"/><feBlend in2="BackgroundImageFix" result="effect1_dropShadow_2_87"/><feBlend in="SourceGraphic" in2="effect1_dropShadow_2_87" result="shape"/></filter></defs></svg>