<svg width="113" height="19" fill="none" xmlns="http://www.w3.org/2000/svg"><g clip-path="url(#a)" fill="#42A8DF"><path d="M9.438.99c.33-.784 1.454-.784 1.784 0l1.948 4.628c.14.33.454.556.815.585l5.057.4c.857.068 1.204 1.124.551 1.677l-3.852 3.26a.948.948 0 0 0-.312.947l1.177 4.874c.2.826-.71 1.48-1.443 1.037l-4.33-2.613a.976.976 0 0 0-1.007 0l-4.329 2.613c-.733.442-1.643-.21-1.444-1.037l1.178-4.875a.948.948 0 0 0-.312-.946L1.067 8.28C.414 7.727.76 6.67 1.618 6.603l5.057-.4a.965.965 0 0 0 .815-.585L9.438.99zM32.484.99c.33-.784 1.454-.784 1.784 0l1.948 4.628c.14.33.454.556.815.585l5.057.4c.856.068 1.204 1.124.551 1.677l-3.852 3.26a.948.948 0 0 0-.312.947l1.177 4.874c.2.826-.71 1.48-1.443 1.037l-4.33-2.613a.976.976 0 0 0-1.007 0l-4.33 2.613c-.733.442-1.642-.21-1.443-1.037l1.177-4.875a.948.948 0 0 0-.31-.946l-3.854-3.26c-.652-.553-.305-1.609.552-1.677l5.056-.4a.965.965 0 0 0 .816-.585L32.483.99zM55.53.99c.33-.784 1.453-.784 1.783 0l1.948 4.628c.14.33.454.556.816.585l5.056.4c.857.068 1.204 1.124.552 1.677l-3.853 3.26a.948.948 0 0 0-.311.947l1.177 4.874c.2.826-.71 1.48-1.444 1.037l-4.33-2.613a.976.976 0 0 0-1.006 0l-4.33 2.613c-.733.442-1.643-.21-1.443-1.037l1.177-4.875a.948.948 0 0 0-.312-.946l-3.852-3.26c-.653-.553-.306-1.609.551-1.677l5.057-.4a.965.965 0 0 0 .815-.585L55.529.99zM78.575.99c.33-.783 1.454-.783 1.784 0l1.948 4.628c.14.33.454.556.816.585l5.056.4c.857.068 1.204 1.125.552 1.677l-3.853 3.26a.948.948 0 0 0-.311.947l1.177 4.874c.199.826-.71 1.48-1.444 1.037l-4.33-2.613a.976.976 0 0 0-1.007 0l-4.329 2.613c-.733.442-1.643-.21-1.443-1.037l1.177-4.874a.948.948 0 0 0-.312-.947l-3.852-3.26c-.653-.552-.306-1.609.551-1.677l5.057-.4a.965.965 0 0 0 .815-.585L78.575.991zM101.62.99c.33-.784 1.455-.784 1.785 0l1.948 4.628c.139.33.454.556.815.585l5.056.4c.857.068 1.205 1.124.552 1.677l-3.853 3.26a.948.948 0 0 0-.311.947l1.177 4.874c.199.826-.71 1.48-1.444 1.037l-4.329-2.613a.976.976 0 0 0-1.007 0l-4.33 2.613c-.733.442-1.642-.21-1.443-1.037l1.177-4.875a.948.948 0 0 0-.311-.946l-3.853-3.26c-.653-.553-.305-1.609.552-1.677l5.056-.4a.965.965 0 0 0 .815-.585L101.62.99z"/></g><defs><clipPath id="a"><path fill="#fff" transform="translate(.728 .402)" d="M0 0h111.388v18.138H0z"/></clipPath></defs></svg>